<svg width="100" height="100" viewBox="0 0 100 100" fill="none" xmlns="http://www.w3.org/2000/svg">
<path d="M12 95.0775C12 77.8389 25.9162 63.8643 43.0827 63.8643H46.0155C63.1821 63.8643 77.0983 77.8389 77.0983 95.0775V99.1036H12V95.0775Z" fill="white"/>
<path fill-rule="evenodd" clip-rule="evenodd" d="M46.0155 64.9595H43.0827C26.5185 64.9595 13.0906 78.4438 13.0906 95.0775V98.0084H76.0076V95.0775C76.0076 78.4438 62.5797 64.9595 46.0155 64.9595ZM43.0827 63.8643C25.9162 63.8643 12 77.8389 12 95.0775V99.1036H77.0983V95.0775C77.0983 77.8389 63.1821 63.8643 46.0155 63.8643H43.0827Z" fill="#373D47"/>
<path d="M35.9043 52.1178H53.7046V72.0357H35.9043V52.1178Z" fill="white"/>
<path fill-rule="evenodd" clip-rule="evenodd" d="M52.614 53.213H36.9949V70.9405H52.614V53.213ZM35.9043 52.1178V72.0357H53.7046V52.1178H35.9043Z" fill="#373D47"/>
<path fill-rule="evenodd" clip-rule="evenodd" d="M32.4923 65.3451C32.7632 65.6227 32.7587 66.0682 32.4823 66.3402C31.2306 67.572 29.3713 69.8645 27.9216 72.6882C26.4699 75.5157 25.4623 78.8099 25.8167 82.0719C25.8587 82.4582 25.5808 82.8056 25.196 82.8477C24.8113 82.8899 24.4654 82.6108 24.4234 82.2245C24.0281 78.5858 25.155 75.0055 26.6758 72.0433C28.1986 69.0773 30.15 66.6648 31.5013 65.335C31.7777 65.063 32.2214 65.0675 32.4923 65.3451Z" fill="#373D47"/>
<path fill-rule="evenodd" clip-rule="evenodd" d="M54.9169 64.5609C54.646 64.8385 54.6505 65.284 54.9269 65.5561C56.1785 66.7878 58.0378 69.0803 59.4876 71.9041C60.9393 74.7316 61.9468 78.0258 61.5925 81.2877C61.5505 81.674 61.8284 82.0214 62.2131 82.0636C62.5979 82.1057 62.9438 81.8267 62.9858 81.4403C63.3811 77.8016 62.2542 74.2213 60.7333 71.2591C59.2105 68.2931 57.2591 65.8806 55.9079 64.5508C55.6314 64.2788 55.1878 64.2833 54.9169 64.5609Z" fill="#373D47"/>
<path d="M27.6178 83.8732C27.6178 85.2591 26.499 86.3825 25.1189 86.3825C23.7389 86.3825 22.6201 85.2591 22.6201 83.8732C22.6201 82.4873 23.7389 81.3639 25.1189 81.3639C26.499 81.3639 27.6178 82.4873 27.6178 83.8732Z" fill="#BFBFD5"/>
<path fill-rule="evenodd" clip-rule="evenodd" d="M25.1189 85.3754C25.9451 85.3754 26.6148 84.7028 26.6148 83.8732C26.6148 83.0436 25.9451 82.3711 25.1189 82.3711C24.2928 82.3711 23.6231 83.0436 23.6231 83.8732C23.6231 84.7028 24.2928 85.3754 25.1189 85.3754ZM25.1189 86.3825C26.499 86.3825 27.6178 85.2591 27.6178 83.8732C27.6178 82.4873 26.499 81.3639 25.1189 81.3639C23.7389 81.3639 22.6201 82.4873 22.6201 83.8732C22.6201 85.2591 23.7389 86.3825 25.1189 86.3825Z" fill="#373D47"/>
<path d="M57.6035 95.3219C57.6035 96.1014 57.114 96.7334 56.5102 96.7334C55.9064 96.7334 55.417 96.1014 55.417 95.3219C55.417 94.5423 55.9064 93.9104 56.5102 93.9104C57.114 93.9104 57.6035 94.5423 57.6035 95.3219Z" fill="#373D47"/>
<path d="M68.8486 95.3219C68.8486 96.1014 68.3591 96.7334 67.7553 96.7334C67.1516 96.7334 66.6621 96.1014 66.6621 95.3219C66.6621 94.5423 67.1516 93.9104 67.7553 93.9104C68.3591 93.9104 68.8486 94.5423 68.8486 95.3219Z" fill="#373D47"/>
<path fill-rule="evenodd" clip-rule="evenodd" d="M55.0615 88.7351C55.0615 84.813 58.2277 81.6335 62.1334 81.6335C66.0391 81.6335 69.2053 84.813 69.2053 88.7351V95.4789C69.2053 95.8497 68.9059 96.1503 68.5366 96.1503C68.1673 96.1503 67.868 95.8497 67.868 95.4789V88.7351C67.868 85.5547 65.3005 82.9764 62.1334 82.9764C58.9663 82.9764 56.3988 85.5547 56.3988 88.7351V95.4789C56.3988 95.8497 56.0994 96.1503 55.7302 96.1503C55.3609 96.1503 55.0615 95.8497 55.0615 95.4789V88.7351Z" fill="#373D47"/>
<path d="M53.1709 67.1074C46.6854 73.9958 39.0981 69.9776 36.8115 67.1074L45.388 94.0839L53.1709 67.1074Z" fill="#5775FF"/>
<path d="M45.8007 93.2561L54.121 62.6552C54.187 62.4124 54.4857 62.3262 54.6701 62.4967L57.778 65.3719C58.6695 66.1967 58.6345 67.6209 57.7035 68.4005L55.8812 69.9263C55.7607 70.0273 55.7263 70.1989 55.7986 70.3388L57.6845 73.9889C58.4712 75.5117 58.2966 77.356 57.2383 78.7027L45.8007 93.2561Z" fill="white"/>
<path fill-rule="evenodd" clip-rule="evenodd" d="M54.594 63.2711L45.3876 94.0839L56.7524 78.3181C57.6602 77.163 57.8099 75.581 57.1351 74.2749L55.2493 70.6247C55.0433 70.226 55.1412 69.7371 55.4848 69.4495L57.307 67.9236C57.9511 67.3844 57.9753 66.3991 57.3586 65.8286L54.594 63.2711ZM53.5241 62.4917C53.7122 61.7999 54.5633 61.5542 55.0885 62.0401L58.1964 64.9153C59.3628 65.9943 59.3169 67.8575 58.099 68.8774L56.4521 70.2564L58.2328 73.703C59.1315 75.4424 58.9321 77.5491 57.7232 79.0874L45.7998 94.9118L45.2038 93.0926L53.5241 62.4917Z" fill="#373D47"/>
<path d="M44.9764 93.256L35.351 62.3433C35.2808 62.1177 35.0066 62.0337 34.8229 62.1814L31.4627 64.8841C30.4637 65.6877 30.4596 67.2125 31.4541 68.0216L33.2261 69.463C33.3559 69.5685 33.3882 69.7541 33.3018 69.8976L31.3817 73.0847C30.4005 74.7133 30.5836 76.7927 31.8342 78.2232L44.9764 93.256Z" fill="white"/>
<path fill-rule="evenodd" clip-rule="evenodd" d="M36.2578 62.6955C36.0576 62.0528 35.2764 61.8133 34.753 62.2343L31.3928 64.937C30.0859 65.9883 30.0804 67.9831 31.3816 69.0415L32.9612 70.3265L31.1693 73.3008C30.0485 75.1612 30.2577 77.5364 31.6862 79.1703L45.2929 95.4493L45.8832 93.6082L36.2578 62.6955ZM35.2016 63.4646L32.1659 65.9063C31.4748 66.4621 31.472 67.517 32.16 68.0766L33.932 69.518C34.3018 69.8188 34.3938 70.3476 34.1474 70.7565L32.2274 73.9436C31.3857 75.3405 31.5428 77.1241 32.6155 78.3511L39.1099 86.3428L45.2929 94.2075L35.2016 63.4646Z" fill="#373D47"/>
<path d="M87.0002 74.709C87.0002 81.2625 81.7098 86.5752 75.1837 86.5752C68.6576 86.5752 63.3672 81.2625 63.3672 74.709C63.3672 68.1555 68.6576 62.8429 75.1837 62.8429C81.7098 62.8429 87.0002 68.1555 87.0002 74.709Z" fill="#5775FF"/>
<path fill-rule="evenodd" clip-rule="evenodd" d="M75.1837 84.3848C80.5051 84.3848 84.819 80.0528 84.819 74.709C84.819 69.3653 80.5051 65.0333 75.1837 65.0333C69.8623 65.0333 65.5484 69.3653 65.5484 74.709C65.5484 80.0528 69.8623 84.3848 75.1837 84.3848ZM75.1837 86.5752C81.7098 86.5752 87.0002 81.2625 87.0002 74.709C87.0002 68.1555 81.7098 62.8429 75.1837 62.8429C68.6576 62.8429 63.3672 68.1555 63.3672 74.709C63.3672 81.2625 68.6576 86.5752 75.1837 86.5752Z" fill="white"/>
<path fill-rule="evenodd" clip-rule="evenodd" d="M80.8135 71.6042C81.3488 72.2947 81.2218 73.2941 80.5297 73.8364L75.1689 78.037C74.5887 78.4916 73.7763 78.4894 73.2052 78.0317L70.2535 75.6658C69.5723 75.1198 69.4652 74.1198 70.0144 73.4322C70.5636 72.7446 71.561 72.6298 72.2422 73.1758L74.2199 74.7609L78.5909 71.3359C79.283 70.7936 80.2781 70.9137 80.8135 71.6042Z" fill="white"/>
<path d="M44.9756 93.2561H45.8V99.0511H44.9756V93.2561Z" fill="#373D47"/>
<path d="M35.9051 36.541C35.9051 39.5026 32.6034 41.9035 28.5307 41.9035C24.4579 41.9035 21.1562 39.5026 21.1562 36.541C21.1562 33.5793 24.4579 31.1785 28.5307 31.1785C32.6034 31.1785 35.9051 33.5793 35.9051 36.541Z" fill="white"/>
<path fill-rule="evenodd" clip-rule="evenodd" d="M33.1055 39.4458C34.2357 38.6239 34.8145 37.583 34.8145 36.541C34.8145 35.499 34.2357 34.458 33.1055 33.6362C31.9766 32.8152 30.3626 32.2737 28.5307 32.2737C26.6987 32.2737 25.0848 32.8152 23.9558 33.6362C22.8256 34.458 22.2469 35.499 22.2469 36.541C22.2469 37.583 22.8256 38.6239 23.9558 39.4458C25.0848 40.2667 26.6987 40.8083 28.5307 40.8083C30.3626 40.8083 31.9766 40.2667 33.1055 39.4458ZM28.5307 41.9035C32.6034 41.9035 35.9051 39.5026 35.9051 36.541C35.9051 33.5793 32.6034 31.1785 28.5307 31.1785C24.4579 31.1785 21.1562 33.5793 21.1562 36.541C21.1562 39.5026 24.4579 41.9035 28.5307 41.9035Z" fill="#373D47"/>
<path d="M67.9451 36.541C67.9451 39.5026 64.6435 41.9035 60.5707 41.9035C56.4979 41.9035 53.1963 39.5026 53.1963 36.541C53.1963 33.5793 56.4979 31.1785 60.5707 31.1785C64.6435 31.1785 67.9451 33.5793 67.9451 36.541Z" fill="white"/>
<path fill-rule="evenodd" clip-rule="evenodd" d="M65.1455 39.4458C66.2758 38.6239 66.8545 37.583 66.8545 36.541C66.8545 35.499 66.2758 34.458 65.1455 33.6362C64.0166 32.8152 62.4027 32.2737 60.5707 32.2737C58.7387 32.2737 57.1248 32.8152 55.9959 33.6362C54.8656 34.458 54.2869 35.499 54.2869 36.541C54.2869 37.583 54.8656 38.6239 55.9959 39.4458C57.1248 40.2667 58.7387 40.8083 60.5707 40.8083C62.4027 40.8083 64.0166 40.2667 65.1455 39.4458ZM60.5707 41.9035C64.6435 41.9035 67.9451 39.5026 67.9451 36.541C67.9451 33.5793 64.6435 31.1785 60.5707 31.1785C56.4979 31.1785 53.1963 33.5793 53.1963 36.541C53.1963 39.5026 56.4979 41.9035 60.5707 41.9035Z" fill="#373D47"/>
<path d="M23.8768 30.6944C20.6712 17.1271 30.9177 4.1106 44.8033 4.1106C58.5274 4.1106 68.7407 16.8438 65.8172 30.3092L65.4884 31.8235C63.3693 41.5836 54.7654 48.5429 44.8178 48.5429C35.015 48.5429 26.4962 41.7805 24.2331 32.2024L23.8768 30.6944Z" fill="#373D47"/>
<path d="M26.0896 32.6906C23.8688 20.8879 32.917 9.96606 44.8783 9.96606C56.7246 9.96606 65.7435 20.6902 63.7169 32.4109L61.5566 44.9054C60.3129 52.0981 54.0969 57.3498 46.8271 57.3498H43.1192C35.933 57.3498 29.7635 52.2154 28.4292 45.1245L26.0896 32.6906Z" fill="white"/>
<path fill-rule="evenodd" clip-rule="evenodd" d="M60.482 44.718L62.6424 32.2235C64.5527 21.1753 56.0504 11.0613 44.8783 11.0613C33.5977 11.0613 25.0679 21.3618 27.1613 32.4873L29.5009 44.9211C30.7378 51.4948 36.4572 56.2546 43.1192 56.2546H46.8271C53.5666 56.2546 59.3291 51.3861 60.482 44.718ZM44.8783 9.96606C32.917 9.96606 23.8688 20.8879 26.0896 32.6906L28.4292 45.1245C29.7635 52.2154 35.933 57.3498 43.1192 57.3498H46.8271C54.0969 57.3498 60.3129 52.0981 61.5566 44.9054L63.7169 32.4109C65.7435 20.6902 56.7246 9.96606 44.8783 9.96606Z" fill="#373D47"/>
<path fill-rule="evenodd" clip-rule="evenodd" d="M48.3192 31.399C48.4788 31.6555 48.4012 31.9934 48.1458 32.1536C45.8726 33.5804 43.5182 32.8159 42.4782 32.1513C42.2241 31.9889 42.1492 31.6504 42.3109 31.3953C42.4726 31.1401 42.8096 31.0649 43.0637 31.2273C43.8885 31.7543 45.7723 32.3518 47.5678 31.2249C47.8231 31.0646 48.1596 31.1426 48.3192 31.399Z" fill="#373D47"/>
<path d="M35.9063 32.966C35.9063 33.6711 36.4756 34.2428 37.1778 34.2428C37.88 34.2428 38.4492 33.6711 38.4492 32.966C38.4492 32.2608 37.88 31.6892 37.1778 31.6892C36.4756 31.6892 35.9063 32.2608 35.9063 32.966Z" fill="#373D47"/>
<path fill-rule="evenodd" clip-rule="evenodd" d="M34.1467 33.2892C37.4215 31.3548 39.1343 32.5686 39.5265 33.1312C39.6992 33.379 40.0392 33.4392 40.2859 33.2658C40.5326 33.0924 40.5926 32.7509 40.4199 32.5032C39.6254 31.3634 37.2357 30.1939 33.5938 32.3452C33.3342 32.4985 33.2475 32.8342 33.4002 33.0948C33.5529 33.3555 33.8871 33.4425 34.1467 33.2892Z" fill="#373D47"/>
<path d="M53.706 32.966C53.706 33.6711 53.1367 34.2428 52.4345 34.2428C51.7323 34.2428 51.1631 33.6711 51.1631 32.966C51.1631 32.2608 51.7323 31.6892 52.4345 31.6892C53.1367 31.6892 53.706 32.2608 53.706 32.966Z" fill="#373D47"/>
<path fill-rule="evenodd" clip-rule="evenodd" d="M55.4627 33.2892C52.1879 31.3548 50.4751 32.5686 50.0829 33.1312C49.9102 33.379 49.5702 33.4392 49.3235 33.2658C49.0767 33.0924 49.0167 32.7509 49.1894 32.5032C49.9839 31.3634 52.3737 30.1939 56.0156 32.3452C56.2752 32.4985 56.3619 32.8342 56.2092 33.0948C56.0565 33.3555 55.7222 33.4425 55.4627 33.2892Z" fill="#373D47"/>
<path fill-rule="evenodd" clip-rule="evenodd" d="M47.7568 47.6763C46.277 48.3358 44.2419 48.3557 42.1669 47.6576C41.8814 47.5615 41.5723 47.7161 41.4766 48.0028C41.381 48.2896 41.5349 48.6 41.8205 48.696C44.0798 49.4562 46.4072 49.476 48.1992 48.6773C48.4745 48.5546 48.5986 48.2311 48.4764 47.9546C48.3543 47.6782 48.0321 47.5536 47.7568 47.6763Z" fill="#373D47"/>
<path fill-rule="evenodd" clip-rule="evenodd" d="M37.7242 29.2095H34.0859C31.4797 29.2095 29.367 31.3311 29.367 33.9482V34.2428C29.367 37.8689 32.2942 40.8084 35.9051 40.8084C39.516 40.8084 42.4432 37.8689 42.4432 34.2428V33.9482C42.4432 31.3311 40.3304 29.2095 37.7242 29.2095ZM34.0859 28.1143C30.8774 28.1143 28.2764 30.7262 28.2764 33.9482V34.2428C28.2764 38.4738 31.6919 41.9036 35.9051 41.9036C40.1183 41.9036 43.5338 38.4738 43.5338 34.2428V33.9482C43.5338 30.7262 40.9328 28.1143 37.7242 28.1143H34.0859Z" fill="#373D47"/>
<path fill-rule="evenodd" clip-rule="evenodd" d="M55.2133 29.2095H53.214C50.1552 29.2095 47.6756 31.6995 47.6756 34.7712C47.6756 38.1054 50.3672 40.8084 53.6875 40.8084H54.7398C58.0601 40.8084 60.7517 38.1054 60.7517 34.7712C60.7517 31.6995 58.2721 29.2095 55.2133 29.2095ZM53.214 28.1143C49.5529 28.1143 46.585 31.0947 46.585 34.7712C46.585 38.7103 49.7649 41.9036 53.6875 41.9036H54.7398C58.6624 41.9036 61.8424 38.7103 61.8424 34.7712C61.8424 31.0947 58.8744 28.1143 55.2133 28.1143H53.214Z" fill="#373D47"/>
<path fill-rule="evenodd" clip-rule="evenodd" d="M23.1548 31.6288C23.188 31.3282 23.4576 31.1116 23.7569 31.145L28.8761 31.7162L28.7557 32.8047L23.6365 32.2335C23.3372 32.2001 23.1215 31.9294 23.1548 31.6288Z" fill="#373D47"/>
<path fill-rule="evenodd" clip-rule="evenodd" d="M65.3323 31.9384C65.2897 31.639 65.0135 31.4309 64.7154 31.4737L60.9053 32.0203L61.0595 33.1045L64.8696 32.5579C65.1678 32.5151 65.3749 32.2378 65.3323 31.9384Z" fill="#373D47"/>
<path fill-rule="evenodd" clip-rule="evenodd" d="M45.1562 34.9809C45.4525 35.035 45.649 35.32 45.5952 35.6176L44.6455 40.8628L45.5935 41.434C45.8517 41.5896 45.9355 41.926 45.7805 42.1853C45.6256 42.4446 45.2906 42.5287 45.0324 42.3731L43.4375 41.4122L44.5221 35.4217C44.576 35.1241 44.8599 34.9268 45.1562 34.9809Z" fill="#373D47"/>
<path opacity="0.7" d="M39.0828 38.5786C37.2739 39.4266 35.1311 38.6586 34.9288 38.2236C34.7266 37.7886 36.6881 38.1663 38.4969 37.3183C40.3057 36.4704 41.277 34.718 41.4792 35.153C41.6814 35.588 40.8916 37.7307 39.0828 38.5786Z" fill="white"/>
<path opacity="0.7" d="M57.899 38.5786C56.0902 39.4265 53.983 38.7355 53.7915 38.3234C53.6 37.9114 55.5353 38.2328 57.3441 37.3849C59.1529 36.5369 60.1503 34.8408 60.3419 35.2528C60.5334 35.6648 59.7078 37.7307 57.899 38.5786Z" fill="white"/>
<path d="M68.0991 18.4827C72.2666 21.2255 66.4126 29.0311 64.3245 33.4233L63.1566 20.2872L52.1777 12.282C56.4408 13.4877 65.387 16.6978 68.0991 18.4827Z" fill="#373D47"/>
<path fill-rule="evenodd" clip-rule="evenodd" d="M64.1987 19.6936L65.0881 29.696C65.202 29.4933 65.3162 29.2897 65.4299 29.086C66.2065 27.6951 66.9776 26.2675 67.554 24.906C68.1376 23.5273 68.4743 22.3222 68.4705 21.3609C68.467 20.4656 68.1779 19.844 67.5013 19.3987C66.2622 18.5832 63.4616 17.373 60.3354 16.19C59.7031 15.9507 59.0631 15.7146 58.4271 15.4853L64.1987 19.6936ZM63.1566 20.2872L64.3245 33.4233C64.5862 32.8728 64.907 32.2688 65.2598 31.6278C65.4837 31.2212 65.7204 30.7998 65.963 30.3677C68.3902 26.046 71.413 20.6637 68.0991 18.4827C65.9605 17.0752 59.9457 14.7816 55.4073 13.2834C54.1902 12.8815 53.0792 12.5369 52.1777 12.282L63.1566 20.2872Z" fill="#373D47"/>
<path d="M31.8344 8.9624C15.3564 9.77955 19.4825 25.3053 23.2121 32.966H25.2228L27.7657 19.1767C35.4961 19.1767 33.6992 12.3672 31.8344 8.9624Z" fill="#373D47"/>
<path fill-rule="evenodd" clip-rule="evenodd" d="M32.1483 8.39844L32.3125 8.69836C33.2649 10.4372 34.2462 13.1175 33.939 15.4189C33.7824 16.5928 33.2856 17.6943 32.2591 18.4924C31.3209 19.2219 29.9965 19.654 28.2211 19.7163L25.6767 33.5135H22.8721L22.7226 33.2064C20.8431 29.346 18.8241 23.4337 19.404 18.3356C19.6959 15.7687 20.6514 13.3745 22.6468 11.573C24.6391 9.77435 27.6049 8.62374 31.8078 8.41532L32.1483 8.39844ZM23.5547 32.4183H24.7695L27.3124 18.629H27.766C29.6251 18.629 30.8291 18.2191 31.5914 17.6264C32.3439 17.0413 32.7308 16.2276 32.8581 15.2735C33.1035 13.4342 32.3657 11.1767 31.5175 9.52862C27.6714 9.77267 25.0775 10.8513 23.3759 12.3875C21.6271 13.9663 20.7576 16.0856 20.4875 18.4599C19.9578 23.1169 21.7524 28.6236 23.5547 32.4183Z" fill="#373D47"/>
<path d="M47.136 17.1685C39.7412 21.9047 31.7301 15.1951 28.649 11.2483C25.9853 7.27197 29.707 4.56621 34.905 2.85096C42.6923 0.281312 51.2899 1.71852 58.643 5.35603C64.8756 8.43923 69.9367 12.5843 69.9367 19.9877C69.9367 28.0003 52.374 20.4575 47.136 17.1685Z" fill="#373D47"/>
<path fill-rule="evenodd" clip-rule="evenodd" d="M34.7352 2.33063C42.6935 -0.295464 51.4412 1.18261 58.8844 4.8647C65.1632 7.97073 70.4824 12.2549 70.4824 19.9876C70.4824 21.0939 70.1766 21.9913 69.5798 22.6656C68.9888 23.3333 68.1627 23.7256 67.2242 23.9256C65.3677 24.3212 62.9065 23.9989 60.3659 23.3466C55.4394 22.0819 49.9103 19.4933 47.1372 17.8116C43.3224 20.1035 39.3774 19.5491 36.0415 17.9591C32.6338 16.3349 29.7981 13.6073 28.2202 11.5861L28.208 11.5704L28.1969 11.5539C27.4822 10.4869 27.1626 9.45384 27.2281 8.46351C27.2936 7.47237 27.7403 6.59609 28.4244 5.83476C29.7716 4.33559 32.1177 3.19433 34.7352 2.33063ZM58.4025 5.84716C51.1394 2.25421 42.6919 0.857876 35.0756 3.37109C32.4951 4.22263 30.3813 5.29187 29.2341 6.56849C28.6711 7.19505 28.3618 7.84798 28.3163 8.53611C28.271 9.22098 28.4822 10.0119 29.0909 10.9262C30.5967 12.8502 33.3011 15.4407 36.5091 16.9697C39.7124 18.4965 43.3534 18.9418 46.8432 16.7067L47.1335 16.5208L47.4255 16.7041C50.0013 18.3215 55.6499 21.0055 60.636 22.2856C63.1409 22.9286 65.3978 23.1952 66.9979 22.8542C67.7877 22.6859 68.3746 22.3787 68.7646 21.9381C69.1487 21.5041 69.3918 20.8844 69.3918 19.9876C69.3918 12.9134 64.5889 8.90751 58.4025 5.84716Z" fill="#373D47"/>
<rect x="13.0879" y="97.032" width="62.9162" height="2.07165" fill="white"/>
</svg>
