<svg width="61" height="42" viewBox="0 0 61 42" fill="none" xmlns="http://www.w3.org/2000/svg">
<g clip-path="url(#clip0)">
<path d="M25.3742 10.1528V20.4763H27.7203V10.1499H29.697V31.9739C29.6438 31.9832 29.5903 31.9894 29.5365 31.9924C28.9968 31.9924 28.4561 31.9889 27.9174 31.9958C27.7805 31.9958 27.726 31.9624 27.7265 31.7939C27.732 28.7 27.7346 25.6061 27.7342 22.5122V22.09H25.3799V31.9791H23.4248V10.1528H25.3742Z"  />
<path d="M49.7568 10.1318C50.3922 10.1318 51.006 10.1272 51.6198 10.141C51.6713 10.141 51.7438 10.2607 51.7665 10.3395C52.033 11.2652 52.2912 12.1937 52.5531 13.121C52.8294 14.099 53.1067 15.0735 53.4005 16.1079C53.5101 15.7392 53.6063 15.4233 53.6984 15.104C54.1496 13.5116 54.5977 11.9181 55.053 10.3292C55.0747 10.2538 55.1523 10.1439 55.2074 10.1428C55.8212 10.1295 56.435 10.1347 57.074 10.1347C56.9057 10.729 56.7442 11.2991 56.5837 11.8698C55.8462 14.4846 55.1112 17.1012 54.3785 19.7196C54.3492 19.8428 54.3492 19.9725 54.3785 20.0958C55.2655 24.0212 56.1549 27.9454 57.0467 31.8684C57.0523 31.9048 57.0561 31.9415 57.058 31.9783C56.9906 31.9847 56.933 31.995 56.8749 31.995C56.3491 31.995 55.8227 31.9893 55.2969 32.0002C55.1426 32.0002 55.0911 31.9467 55.0515 31.7839C54.4814 29.3366 53.9073 26.8907 53.329 24.4461C53.3074 24.3546 53.2775 24.266 53.2317 24.1199C52.7507 26.5965 52.2815 29.0098 51.8128 31.426C51.7027 31.9944 51.7037 31.995 51.1804 31.9956C50.7174 31.9956 50.2543 31.9956 49.7666 31.9956C49.7675 31.9262 49.7727 31.857 49.782 31.7885C50.3494 29.1119 50.917 26.4351 51.485 23.7581C51.7594 22.4633 52.03 21.1674 52.2969 19.8703C52.3091 19.7816 52.3017 19.6909 52.2753 19.6062C51.459 16.5499 50.6412 13.4942 49.8222 10.439C49.7995 10.3464 49.7815 10.2503 49.7568 10.1318Z"  />
<path d="M31.6611 10.1396H37.8567V12.0111H33.6239V20.4378H37.7913V21.9986H33.6239V30.0998H37.8726C37.8726 30.7113 37.8726 31.2895 37.868 31.867C37.868 31.9096 37.8052 31.9591 37.7651 31.9902C37.7409 32.0074 37.6987 31.9942 37.6622 31.9942H31.6611V10.1396Z"  />
<path d="M0.00514673 19.7711C0.347801 21.4832 1.08559 22.9053 2.02145 24.2118C3.32313 26.0291 4.91601 27.4604 6.72034 28.6092C8.56713 29.7908 10.5778 30.6184 12.6689 31.0577C13.7592 31.2878 14.8664 31.4414 15.972 31.5472C17.0524 31.6514 18.1391 31.6513 19.2236 31.6968C19.2709 31.6968 19.3265 31.6824 19.3641 31.706C19.3856 31.7204 19.4041 31.7397 19.4184 31.7627C19.4327 31.7857 19.4424 31.8119 19.4469 31.8395C19.4469 31.8723 19.3862 31.9223 19.344 31.9367C19.2904 31.9476 19.2356 31.9495 19.1814 31.9424C12.8758 31.9424 6.57011 31.9424 0.264453 31.9424C0.105988 31.9424 -0.00051264 31.9424 1.85592e-06 31.6974C0.00720479 27.7417 0.00514673 23.7849 0.00514673 19.7711Z"  />
<path d="M0.015625 17.4587V10.1768H14.387C15.9779 10.1768 17.5688 10.1768 19.16 10.1768C19.4687 10.1768 19.4687 10.1768 19.4687 10.511V17.9322C19.339 17.5807 19.2372 17.239 19.0921 16.9214C18.5925 15.8284 17.8341 14.9884 16.9641 14.267C15.2514 12.8472 13.3158 11.9809 11.2496 11.4596C10.0148 11.1478 8.76153 10.9839 7.49382 11.0288C5.96885 11.0828 4.49482 11.3797 3.14067 12.2167C1.40322 13.2908 0.419504 14.958 0.0650165 17.1182C0.0470092 17.2303 0.0320889 17.3431 0.015625 17.4587Z"  />
<path d="M46.2656 10.1412H48.1955V31.9739H46.2656V10.1412Z"  />
<path d="M41.4992 30.404H41.8218C42.7649 30.404 43.7074 30.4075 44.6515 30.4C44.8121 30.4 44.863 30.446 44.8573 30.6301C44.8445 31.0719 44.8532 31.5143 44.8532 31.9751H39.8184V10.1482H41.4977L41.4992 30.404Z"  />
<path d="M9.04871 15.9562C8.94582 16.1426 8.82594 16.321 8.73693 16.5166C8.40251 17.2552 8.49409 17.9548 8.94273 18.5928C9.41298 19.2636 10.0499 19.6755 10.7548 19.9551C11.7009 20.3307 12.6651 20.4763 13.6473 20.1276C14.4417 19.8446 14.9381 19.1238 15.022 18.2108C15.1249 17.0821 14.666 16.2312 13.9709 15.507C12.9517 14.4444 11.7071 13.8714 10.3638 13.5613C9.20564 13.295 8.04854 13.2697 6.90738 13.6983C5.51825 14.2206 4.67705 15.5231 4.65595 17.1597C4.64309 18.1815 4.76502 19.1704 5.19463 20.088C5.68649 21.139 6.45411 21.8805 7.3622 22.453C8.55223 23.2008 9.84515 23.5857 11.1921 23.7663C12.2575 23.914 13.3361 23.8971 14.3974 23.7163C15.6708 23.4959 16.8865 23.0932 17.9443 22.2205C18.6235 21.6614 19.1277 20.9601 19.3849 20.0534C19.3993 20.0034 19.4168 19.9533 19.4338 19.9039C19.4338 19.8998 19.4451 19.8993 19.4688 19.8906V20.0483C19.4688 21.7442 19.4662 23.4424 19.4724 25.1361C19.4724 25.3403 19.4209 25.4237 19.2306 25.4272C18.0292 25.4519 16.8269 25.5348 15.6291 25.5054C13.3689 25.4479 11.1355 25.1522 8.98286 24.3232C7.9302 23.9205 6.93877 23.3786 6.0811 22.568C5.14575 21.6838 4.50418 20.6017 4.25001 19.2423C4.05039 18.1711 4.01283 17.1085 4.29478 16.0517C4.60347 14.8925 5.27232 14.0808 6.24317 13.5636C6.90016 13.2178 7.61346 13.026 8.33922 12.9999C10.2187 12.9141 11.9685 13.4233 13.5598 14.5531C14.2523 15.045 14.8584 15.6531 15.2422 16.4844C15.7207 17.5199 15.7696 18.5611 15.1748 19.5667C14.8733 20.0776 14.4164 20.3969 13.9056 20.562C12.2458 21.0964 10.6879 20.8301 9.26583 19.7152C8.91298 19.4359 8.6183 19.0746 8.40199 18.6561C7.94358 17.7862 8.06346 16.8945 8.73487 16.2134C8.83057 16.1168 8.93347 16.0282 9.03276 15.9361L9.04871 15.9562Z"  />
<path d="M59.2661 12.7067C58.5699 12.7067 58.0199 12.109 58.0215 11.3462C58.0215 10.6185 58.5802 10.004 59.2434 10C59.9545 9.99599 60.4978 10.5753 60.5009 11.3393C60.5039 12.1033 59.9668 12.7016 59.2661 12.7067ZM60.2184 11.3571C60.2241 10.7416 59.7975 10.2411 59.2671 10.2405C59.0081 10.2444 58.761 10.3625 58.5794 10.569C58.3978 10.7754 58.2964 11.0537 58.2973 11.3433C58.2973 11.9761 58.7125 12.4565 59.2676 12.4686C59.7975 12.4807 60.2127 11.9945 60.2184 11.3571Z"  />
<path d="M60.218 11.3578C60.2123 11.9953 59.7971 12.4814 59.2672 12.4693C58.7121 12.4572 58.2953 11.974 58.2969 11.344C58.296 11.0546 58.3973 10.7765 58.5787 10.5701C58.76 10.3636 59.0069 10.2454 59.2657 10.2412C59.7971 10.2418 60.2237 10.7423 60.218 11.3578ZM59.811 12.058C59.7771 11.913 59.7503 11.7795 59.7143 11.6495C59.6984 11.592 59.6505 11.5442 59.6428 11.4873C59.6305 11.4217 59.639 11.3533 59.667 11.294C59.8481 11.0201 59.7766 10.7337 59.4771 10.6733C59.2682 10.6313 59.0465 10.6652 58.8196 10.6652V12.0931H59.0486V11.5293C59.3855 11.4775 59.4437 11.5137 59.5198 11.8526C59.5584 12.0234 59.6052 12.1477 59.811 12.058Z"  />
<path d="M59.8117 12.0572C59.6059 12.147 59.5591 12.0227 59.5205 11.8518C59.4444 11.513 59.3863 11.4767 59.0493 11.5285V12.0923H58.8203V10.6644C59.0472 10.6644 59.269 10.6305 59.4778 10.6725C59.7773 10.7329 59.8488 11.0177 59.6677 11.2932C59.6397 11.3525 59.6312 11.4209 59.6435 11.4865C59.6512 11.5441 59.6991 11.5918 59.715 11.6488C59.751 11.7811 59.7778 11.9122 59.8117 12.0572ZM59.0457 11.0907C59.0307 11.2104 59.04 11.3208 59.1959 11.2967C59.3343 11.2765 59.5005 11.2967 59.5257 11.0781C59.5427 10.9302 59.4084 10.8388 59.217 10.8336C59.0493 10.8307 59.0266 10.936 59.0457 11.0907Z"  />
<path d="M59.0447 11.0903C59.0257 10.9344 59.0483 10.8291 59.216 10.8331C59.4074 10.8383 59.5417 10.9298 59.5247 11.0776C59.4995 11.2985 59.3333 11.2761 59.1949 11.2962C59.039 11.3204 59.0298 11.2111 59.0447 11.0903Z"  />
</g>
<defs>
<clipPath id="clip0">
<rect width="60.5006" height="42.0001" fill="white"/>
</clipPath>
</defs>
</svg>
