<svg width="104" height="36" viewBox="0 0 104 36" fill="none" xmlns="http://www.w3.org/2000/svg">
<path d="M67.884 12.4656H59.375C59.2804 12.4656 59.2332 12.5174 59.2332 12.6208C58.9968 16.8105 58.2877 21.3622 57.2477 25.0346V25.1898C57.295 25.2415 57.3423 25.2415 57.3895 25.2415H60.3204C60.3677 25.2415 60.4623 25.1898 60.4623 25.1381C61.2659 22.2932 61.9277 18.5691 62.1641 15.4139H64.9531V25.0863C64.9531 25.1898 65.0004 25.2415 65.095 25.2415H67.884C67.9786 25.2415 68.0259 25.1898 68.0259 25.0863V12.6725C68.0259 12.5691 67.9786 12.4656 67.884 12.4656ZM103.858 12.4656H101.069C100.975 12.4656 100.928 12.5174 100.928 12.6208V22.2415C100.313 22.4484 99.6985 22.5001 99.0367 22.5001C97.193 22.5001 96.7676 21.8794 96.7676 19.1898V12.6725C96.7676 12.5691 96.7203 12.5174 96.6258 12.5174H93.8367C93.7421 12.5174 93.6949 12.5691 93.6949 12.6725V19.6036C93.6949 23.9484 95.0185 25.6553 98.4694 25.6553C100.408 25.6553 102.629 25.0863 103.906 24.5691C103.953 24.5691 104 24.4656 104 24.4139V12.6725C104 12.5691 103.953 12.4656 103.858 12.4656ZM45.0041 12.5174H42.1678C42.0732 12.5174 42.026 12.5691 42.026 12.6208C41.6005 14.5346 40.7023 17.7415 39.4732 21.1036L36.6369 12.5691C36.6369 12.5174 36.5423 12.4656 36.4951 12.4656H33.6587C33.6114 12.4656 33.5642 12.5174 33.5169 12.5174C33.4696 12.5691 33.4696 12.6208 33.5169 12.6725L37.7714 25.3967C37.346 26.3794 36.9205 27.207 36.5423 27.9829C36.2587 28.5518 35.9751 29.1208 35.6914 29.7415C35.6442 29.7932 35.6914 29.8449 35.6914 29.8967C35.7387 29.9484 35.786 30.0001 35.8333 30.0001H38.906C38.9532 30.0001 39.0005 29.9484 39.0478 29.8967C39.5678 28.8105 40.2296 27.2587 40.8441 25.707C42.6405 21.0518 44.106 16.707 45.1932 12.7243C45.1932 12.6725 45.1932 12.6208 45.1459 12.5691C45.0987 12.5174 45.0514 12.5174 45.0041 12.5174ZM55.1205 22.2932C55.1205 22.2415 55.0732 22.1898 55.0259 22.1898H54.8841C54.2223 22.4484 52.9459 22.707 52.0477 22.707C50.1096 22.707 49.2114 22.1381 49.2114 18.8794C49.2114 16.2932 49.495 15.0518 52.0477 15.0518C52.7568 15.0518 53.4659 15.1553 54.3168 15.4656C54.4114 15.4656 54.4586 15.4656 54.5059 15.3622C54.8368 14.6898 55.215 13.9139 55.6405 12.8794V12.7243C55.6405 12.6725 55.5932 12.6208 55.5459 12.6208C54.4114 12.207 53.0405 12.0001 51.8586 12.0001C47.7932 12.0001 45.9969 14.0691 45.9969 18.776C45.9969 23.5346 47.7932 25.6553 51.8586 25.6553C52.8514 25.6553 54.8841 25.3967 55.8295 24.9829C55.9241 24.9312 55.9241 24.8794 55.9241 24.776L55.1205 22.2932ZM81.5458 12.5174H78.7095C78.6622 12.5174 78.5676 12.5691 78.5676 12.6208C78.1422 14.5346 77.244 17.7415 76.0149 21.1036L73.1786 12.5691C73.1786 12.5174 73.084 12.4656 73.0368 12.4656H70.2004C70.1531 12.4656 70.1059 12.5174 70.0586 12.5174C70.0113 12.5691 70.0113 12.6208 70.0586 12.6725L74.3131 25.3967C73.8877 26.3794 73.4622 27.1553 73.084 27.9829C72.8004 28.5518 72.5168 29.1208 72.2331 29.7415C72.1858 29.7932 72.2331 29.8449 72.2331 29.8967C72.2804 29.9484 72.3277 30.0001 72.3749 30.0001H75.4477C75.4949 30.0001 75.5422 29.9484 75.5895 29.8967C76.1095 28.8105 76.7713 27.2587 77.3858 25.707C79.1822 21.0518 80.6476 16.707 81.6876 12.7243C81.6876 12.6725 81.6876 12.6208 81.6404 12.5691C81.6404 12.5174 81.5931 12.5174 81.5458 12.5174ZM91.9458 12.4656H83.7203C83.6258 12.4656 83.5785 12.5174 83.5785 12.6208V25.0863C83.5785 25.1898 83.6258 25.2415 83.7203 25.2415H86.5094C86.604 25.2415 86.6512 25.1898 86.6512 25.0863V15.4656H90.953C91.0003 15.4656 91.0949 15.4139 91.0949 15.3622C91.4258 14.5346 91.7567 13.6036 92.0876 12.7243V12.5691C92.0403 12.5174 91.993 12.4656 91.9458 12.4656Z"/>
<path d="M14.7963 22.8105C12.9527 22.8105 12.3854 22.2415 12.3854 18.8795C12.3854 15.2588 13 14.9484 14.7963 14.9484C16.5927 14.9484 17.2545 15.2588 17.2545 18.8795C17.2545 22.2933 16.6399 22.8105 14.7963 22.8105ZM14.7963 12.1036C10.7781 12.1036 9.21815 13.9657 9.21815 18.8277C9.21815 23.7415 10.7781 25.6553 14.7963 25.6553C18.8145 25.6553 20.4217 23.7415 20.4217 18.8277C20.4217 14.0174 18.8145 12.1036 14.7963 12.1036ZM31.4835 22.2933C31.4835 22.2415 31.4362 22.1898 31.389 22.1898H31.2472C30.5853 22.4484 29.309 22.7071 28.4108 22.7071C26.4726 22.7071 25.5745 22.1381 25.5745 18.8795C25.5745 16.2933 25.8581 15.0519 28.4108 15.0519C29.1199 15.0519 29.829 15.1553 30.6799 15.4657C30.7272 15.4657 30.8217 15.4657 30.869 15.3622C31.1999 14.6898 31.5781 13.9139 32.0035 12.8795V12.7243C32.0035 12.6726 31.9562 12.6208 31.909 12.6208C30.8217 12.2588 29.4508 12.0519 28.269 12.0519C24.2035 12.0519 22.4072 14.1208 22.4072 18.8277C22.4072 23.5864 24.2035 25.7071 28.269 25.7071C29.2617 25.7071 31.2944 25.4484 32.2399 25.0346C32.3344 24.9829 32.3344 24.9312 32.3344 24.8277L31.4835 22.2933ZM8.36724 12.4657H0.141818C0.0472726 12.4657 0 12.5691 0 12.6726V25.1381C0 25.2415 0.0472726 25.2933 0.141818 25.2933H2.9309C3.02544 25.2933 3.07272 25.2415 3.07272 25.1381V15.4657H7.37452C7.42179 15.4657 7.46906 15.4139 7.51634 15.3622C7.84724 14.5346 8.17815 13.6036 8.50906 12.7243V12.5691C8.46179 12.5174 8.41451 12.4657 8.36724 12.4657Z"/>
</svg>
