<svg width="77" height="36" viewBox="0 0 77 36" fill="none" xmlns="http://www.w3.org/2000/svg">
<path fill-rule="evenodd" clip-rule="evenodd" d="M36.0618 10.2245L33.3887 25.7769H36.4506L39.1237 10.2245H36.0618Z"  />
<path fill-rule="evenodd" clip-rule="evenodd" d="M2.7217 10.2239L0 25.7763H3.06191L5.78361 10.2239H2.7217Z"  />
<path fill-rule="evenodd" clip-rule="evenodd" d="M24.0581 25.7769H26.877L35.0907 10.2245H32.0288L26.2938 21.0217L24.4955 10.2245H21.4336L24.0581 25.7769Z"  />
<path fill-rule="evenodd" clip-rule="evenodd" d="M44.4706 25.7769L46.6091 13.4692H50.0598L50.5944 10.2245H40.5825L40.0479 13.4692H43.5472L41.4087 25.7769H44.4706Z"  />
<path fill-rule="evenodd" clip-rule="evenodd" d="M8.74791 25.7769L10.5462 15.4832L15.2119 25.7769H17.885L20.5581 10.2245H17.642L15.8438 20.5182L11.1294 10.2245H8.5049L5.7832 25.7769H8.74791Z"  />
<path fill-rule="evenodd" clip-rule="evenodd" d="M57.8841 10.2245H52.2463L49.5732 25.7769H52.6352L54.7736 13.4692H57.4467C58.0786 13.4692 58.5646 13.693 58.9048 14.0846C59.1964 14.4203 59.3422 14.9238 59.2936 15.4273C59.1478 16.9937 58.0786 17.721 56.7177 17.721H54.4334L57.3009 25.7769H60.3628L58.4674 20.4622C60.8003 20.0147 62.2583 18.0567 62.3555 15.4273C62.5013 12.3504 60.5572 10.2245 57.8841 10.2245Z"  />
<path d="M62.9386 18.0001C63.1816 13.5805 66.2922 10.0001 70.3747 10.0001C74.4573 10.0001 77.2275 13.5805 76.9845 18.0001C76.7415 22.4197 73.631 26.0001 69.5485 26.0001C65.4659 26.0001 62.6956 22.4756 62.9386 18.0001ZM74.1656 18.0001C74.3115 15.3708 72.659 13.133 70.2289 13.133C67.7502 13.133 65.9519 15.3148 65.8061 18.0001C65.6603 20.6295 67.3128 22.8673 69.7429 22.8673C72.173 22.8673 74.0198 20.6854 74.1656 18.0001Z"  />
</svg>
