<svg width="124" height="32" viewBox="0 0 124 32" fill="none" xmlns="http://www.w3.org/2000/svg">
<path d="M110.79 10.1618V12.9108H115.908V24.0001H118.835V12.9121H124V10.163H110.79V10.1618ZM104.047 21.2472H100.294C98.6188 21.2472 97.9288 20.8488 97.9288 18.7374V15.3061C97.9288 13.1336 98.3359 12.7518 100.294 12.7518H104.047C105.745 12.7518 106.396 13.3728 106.396 14.8263H109.326C109.326 10.9381 107.509 10.0001 104.612 10.0001H99.7481C96.1452 10.0001 95.001 11.1405 95.001 15.1878V19.1128C95.001 22.8216 96.0773 23.9988 99.4652 23.9988H104.915C108.526 23.9988 109.326 22.9018 109.341 19.2134H106.396C106.396 20.887 105.796 21.2447 104.047 21.2447V21.2472ZM79.5993 24.0001H92.1076V21.3872H82.5283V18.2143H91.8063V15.8025H82.5271V12.7721H92.1076V10.163H79.5993V24.0001ZM64.2103 12.9121H69.3277V24.0001H72.2555V12.9121H77.4235V10.163H64.2103V12.9121ZM59.8357 15.2272C59.8357 13.2112 59.2377 12.7518 57.4921 12.7518H53.7178C51.8825 12.7518 51.365 13.2685 51.365 15.2438V18.9347C51.365 20.747 51.8825 21.2459 53.6615 21.2459H57.545C59.4102 21.2459 59.8357 20.7916 59.8357 18.913V15.2272ZM62.7647 14.9256V19.2719C62.7647 22.721 61.762 24.0001 58.3373 24.0001H52.9577C49.6722 24.0001 48.444 22.6256 48.444 19.2719V14.9256C48.444 11.1405 49.6251 10.0001 52.9577 10.0001H58.3385C61.3675 10.0001 62.7647 11.0361 62.7647 14.9256ZM37.165 21.2459H37.1535L33.0976 10.1618H28.0561V24.0001H30.9873V12.9745L35.1618 24.0001H39.1603L43.3381 12.9618V24.0001H46.266V10.1618H41.221L37.1639 21.2472L37.165 21.2459ZM12.659 24.0001H25.165V21.3872H15.5845V18.2143H24.8626V15.8025H15.5845V12.7721H25.1639V10.163H12.6613V24.0001H12.659ZM0 10.1618H10.4959V12.9108H2.92095V24.0001H0V10.1618Z"/>
</svg>
