<svg width="100" height="100" viewBox="0 0 100 100" fill="none" xmlns="http://www.w3.org/2000/svg">
<path d="M42.0226 36.4832V25.4744H26.2566V37.1589C26.2566 40.6623 24.3342 43.9191 21.2015 45.5519C10.5726 51.094 3.89105 63.0512 6.42007 76.2206C8.54174 87.2672 17.2013 96.0517 28.3196 98.3659C46.8638 102.226 63.1983 88.3286 63.1983 70.6553C63.1983 59.6291 56.8392 50.0732 47.5495 45.3837C44.1619 43.6755 42.0226 40.2447 42.0226 36.4832Z" fill="white"/>
<path fill-rule="evenodd" clip-rule="evenodd" d="M25.3721 25.4743C25.3721 24.986 25.7679 24.5902 26.2562 24.5902H42.0222C42.5105 24.5902 42.9063 24.986 42.9063 25.4743V36.4831C42.9063 39.9048 44.8522 43.0336 47.9472 44.5942L47.9475 44.5944C57.5202 49.4267 64.082 59.279 64.082 70.6552C64.082 88.8902 47.2313 103.205 28.1391 99.2314C16.6738 96.8448 7.74094 87.7866 5.5515 76.3873L6.36368 76.2313L5.5515 76.3873C2.94437 62.8111 9.83852 50.4795 20.7924 44.7679L20.7925 44.7678C23.6263 43.2909 25.3721 40.3403 25.3721 37.1589V25.4743ZM27.1403 26.3583V37.1589C27.1403 40.9841 25.0413 44.5472 21.6097 46.3358C11.3058 51.7085 4.83701 63.2912 7.2879 76.0538C9.34181 86.7475 17.7281 95.2583 28.4994 97.5003C46.4955 101.246 62.3139 87.7669 62.3139 70.6552C62.3139 59.979 56.1576 50.7197 47.1511 46.173C43.4708 44.3172 41.1382 40.5843 41.1382 36.4831V26.3583H27.1403Z" fill="#373D47"/>
<path d="M43.622 25.4772H25.1834C23.6419 25.4772 22.3936 24.2418 22.3936 22.7163V19.6451C22.3936 18.1196 23.6419 16.8842 25.1834 16.8842H43.622C45.1635 16.8842 46.4119 18.1196 46.4119 19.6451V22.7163C46.4119 24.2389 45.1635 25.4772 43.622 25.4772Z" fill="white"/>
<path fill-rule="evenodd" clip-rule="evenodd" d="M25.1837 17.7681C24.1218 17.7681 23.2779 18.6164 23.2779 19.645V22.7162C23.2779 23.7447 24.1218 24.5931 25.1837 24.5931H43.6223C44.6836 24.5931 45.5281 23.7424 45.5281 22.7162V19.645C45.5281 18.6164 44.6842 17.7681 43.6223 17.7681H25.1837ZM21.5098 19.645C21.5098 17.6226 23.1627 16 25.1837 16H43.6223C45.6433 16 47.2962 17.6226 47.2962 19.645V22.7162C47.2962 24.7351 45.6439 26.3612 43.6223 26.3612H25.1837C23.1627 26.3612 21.5098 24.7386 21.5098 22.7162V19.645Z" fill="#373D47"/>
<path d="M92.0623 55.8626H69.5652C68.3351 55.8626 67.3389 54.8767 67.3389 53.6594V51.3844C67.3389 50.1671 68.3351 49.1812 69.5652 49.1812H92.0623C93.2924 49.1812 94.2887 50.1671 94.2887 51.3844V53.6594C94.2887 54.8767 93.2924 55.8626 92.0623 55.8626Z" fill="white"/>
<path fill-rule="evenodd" clip-rule="evenodd" d="M69.5656 49.8866C68.7182 49.8866 68.0448 50.5635 68.0448 51.3843V53.6593C68.0448 54.4801 68.7182 55.1571 69.5656 55.1571H92.0627C92.9101 55.1571 93.5836 54.4801 93.5836 53.6593V51.3843C93.5836 50.5635 92.9101 49.8866 92.0627 49.8866H69.5656ZM66.6338 51.3843C66.6338 49.7704 67.9528 48.4756 69.5656 48.4756H92.0627C93.6755 48.4756 94.9946 49.7704 94.9946 51.3843V53.6593C94.9946 55.2732 93.6755 56.5681 92.0627 56.5681H69.5656C67.9528 56.5681 66.6338 55.2732 66.6338 53.6593V51.3843Z" fill="#373D47"/>
<path d="M92.0623 91.4134H69.5652C68.3351 91.4134 67.3389 90.4275 67.3389 89.2102V86.9352C67.3389 85.7178 68.3351 84.7319 69.5652 84.7319H92.0623C93.2924 84.7319 94.2887 85.7178 94.2887 86.9352V89.2102C94.2887 90.4275 93.2924 91.4134 92.0623 91.4134Z" fill="white"/>
<path fill-rule="evenodd" clip-rule="evenodd" d="M69.5656 85.4375C68.7182 85.4375 68.0448 86.1144 68.0448 86.9352V89.2102C68.0448 90.031 68.7182 90.708 69.5656 90.708H92.0627C92.9102 90.708 93.5836 90.031 93.5836 89.2102V86.9352C93.5836 86.1145 92.9101 85.4375 92.0627 85.4375H69.5656ZM66.6338 86.9352C66.6338 85.3214 67.9528 84.0265 69.5656 84.0265H92.0627C93.6755 84.0265 94.9946 85.3214 94.9946 86.9352V89.2102C94.9946 90.8241 93.6755 92.119 92.0627 92.119H69.5656C67.9528 92.119 66.6338 90.8241 66.6338 89.2102V86.9352Z" fill="#373D47"/>
<path d="M91.7196 55.8628H88.0527V84.7295H91.7196V55.8628Z" fill="white"/>
<path fill-rule="evenodd" clip-rule="evenodd" d="M87.3477 55.8628C87.3477 55.4732 87.6635 55.1573 88.0532 55.1573H91.7201C92.1097 55.1573 92.4256 55.4732 92.4256 55.8628V84.7296C92.4256 85.1192 92.1097 85.4351 91.7201 85.4351H88.0532C87.6635 85.4351 87.3477 85.1192 87.3477 84.7296V55.8628ZM88.7587 56.5683V84.0241H91.0146V56.5683H88.7587Z" fill="#373D47"/>
<path d="M78.2916 81.0615H77.7417C74.9875 81.0615 72.7549 78.8662 72.7549 76.1579V44.7263H83.2785V76.1602C83.2785 78.8662 81.0459 81.0615 78.2916 81.0615Z" fill="white"/>
<path fill-rule="evenodd" clip-rule="evenodd" d="M72.0498 44.7261C72.0498 44.3365 72.3657 44.0206 72.7553 44.0206H83.2789C83.6685 44.0206 83.9844 44.3365 83.9844 44.7261V76.16C83.9844 79.267 81.4245 81.7668 78.2921 81.7668H77.7421C74.6095 81.7668 72.0498 79.2668 72.0498 76.1577V44.7261ZM73.4608 45.4316V76.1577C73.4608 78.4652 75.3663 80.3558 77.7421 80.3558H78.2921C80.6682 80.3558 82.5734 78.465 82.5734 76.16V45.4316H73.4608Z" fill="#373D47"/>
<path d="M76.3703 60.0721H72.2334V58.6835H76.3703C76.7585 58.6835 77.0719 58.9936 77.0719 59.3778C77.0719 59.762 76.7562 60.0721 76.3703 60.0721Z" fill="#373D47"/>
<path d="M76.6037 64.1645H72.4668V62.7759H76.6037C76.992 62.7759 77.3053 63.086 77.3053 63.4702C77.3053 63.8544 76.9896 64.1645 76.6037 64.1645Z" fill="#373D47"/>
<path d="M74.1582 70.191C74.1582 69.9313 74.3688 69.7207 74.6285 69.7207H81.4052C81.6649 69.7207 81.8755 69.9313 81.8755 70.191V75.8137C81.8755 77.9448 80.1479 79.6724 78.0169 79.6724C75.8858 79.6724 74.1582 77.9448 74.1582 75.8137V70.191Z" fill="#5775FF"/>
<path fill-rule="evenodd" clip-rule="evenodd" d="M75.0989 70.6614V75.8137C75.0989 77.4253 76.4053 78.7317 78.0169 78.7317C79.6284 78.7317 80.9348 77.4253 80.9348 75.8137V70.6614H75.0989ZM74.6285 69.7207C74.3688 69.7207 74.1582 69.9313 74.1582 70.191V75.8137C74.1582 77.9448 75.8858 79.6724 78.0169 79.6724C80.1479 79.6724 81.8755 77.9448 81.8755 75.8137V70.191C81.8755 69.9313 81.6649 69.7207 81.4052 69.7207H74.6285Z" fill="#373D47"/>
<path d="M83.7612 45.6675H72.2507C71.0207 45.6675 70.0244 44.6816 70.0244 43.4643V41.8512C70.0244 40.6339 71.0207 39.6479 72.2507 39.6479H83.7612C84.9913 39.6479 85.9876 40.6339 85.9876 41.8512V43.4643C85.9899 44.6793 84.9913 45.6675 83.7612 45.6675Z" fill="white"/>
<path fill-rule="evenodd" clip-rule="evenodd" d="M84.5766 43.467L84.5766 43.4643L84.5766 41.8512C84.5766 41.427 84.2259 41.059 83.7612 41.059H72.2507C71.786 41.059 71.4354 41.427 71.4354 41.8512V43.4643C71.4354 43.8885 71.786 44.2565 72.2507 44.2565H83.7612C84.2275 44.2565 84.5774 43.8853 84.5766 43.467ZM85.9876 43.4643V41.8512C85.9876 40.6339 84.9913 39.6479 83.7612 39.6479H72.2507C71.0207 39.6479 70.0244 40.6339 70.0244 41.8512V43.4643C70.0244 44.6816 71.0207 45.6675 72.2507 45.6675H83.7612C84.9913 45.6675 85.9899 44.6793 85.9876 43.4643Z" fill="#373D47"/>
<path d="M34.0143 95.1592C45.8161 95.1592 55.626 86.6307 57.6171 75.4005C58.0699 72.8461 56.5203 70.4546 54.2 69.2944L52.3336 68.3612C49.7325 67.0607 46.6709 67.0607 44.0698 68.3612C40.4895 70.1513 36.2976 70.2523 32.6353 68.6366L28.881 66.9803C24.4416 65.0217 19.3204 65.3888 15.2057 67.9605C11.9937 69.9679 9.85678 73.5456 10.806 77.2124C13.4782 87.5353 22.8559 95.1592 34.0143 95.1592Z" fill="#5775FF"/>
<path fill-rule="evenodd" clip-rule="evenodd" d="M34.0143 93.398C44.9472 93.398 54.0384 85.497 55.8829 75.093C56.1688 73.4808 55.2074 71.7672 53.4124 70.8697L51.5459 69.9365C49.4407 68.8838 46.9627 68.8838 44.8574 69.9365C40.8079 71.9612 36.0666 72.0754 31.9244 70.2479L28.1701 68.5916C24.2645 66.8686 19.7591 67.1915 16.1391 69.4539C13.3386 71.2043 11.8171 74.0906 12.511 76.771C14.987 86.336 23.6782 93.398 34.0143 93.398ZM57.6171 75.4005C55.626 86.6307 45.8161 95.1592 34.0143 95.1592C22.8559 95.1592 13.4782 87.5353 10.806 77.2124C9.85678 73.5456 11.9937 69.9679 15.2057 67.9605C19.3204 65.3888 24.4416 65.0217 28.881 66.9803L32.6353 68.6366C36.2976 70.2523 40.4895 70.1513 44.0698 68.3612C46.6709 67.0607 49.7325 67.0607 52.3336 68.3612L54.2 69.2944C56.5203 70.4546 58.0699 72.8461 57.6171 75.4005Z" fill="#373D47"/>
<path opacity="0.8" d="M29.3114 89.1013C33.5245 90.4994 37.6708 89.4303 37.8892 88.772C38.1076 88.1137 34.1574 88.5921 29.9443 87.1941C25.7312 85.796 22.8506 83.0509 22.6322 83.7092C22.4137 84.3675 25.0983 87.7033 29.3114 89.1013Z" fill="white"/>
<path opacity="0.8" d="M18.5254 80.9232C19.3279 80.9232 19.9785 80.2726 19.9785 79.4701C19.9785 78.6676 19.3279 78.017 18.5254 78.017C17.7229 78.017 17.0723 78.6676 17.0723 79.4701C17.0723 80.2726 17.7229 80.9232 18.5254 80.9232Z" fill="white"/>
<path opacity="0.8" d="M77.9478 78.017C78.4572 78.017 78.8701 77.604 78.8701 77.0946C78.8701 76.5852 78.4572 76.1722 77.9478 76.1722C77.4384 76.1722 77.0254 76.5852 77.0254 77.0946C77.0254 77.604 77.4384 78.017 77.9478 78.017Z" fill="white"/>
</svg>
