<svg width="24" height="24" viewBox="0 0 24 24" fill="none" xmlns="http://www.w3.org/2000/svg">
<path d="M12.0869 15.3221C11.8768 15.5333 11.7591 15.8191 11.7595 16.117C11.7599 16.4148 11.8784 16.7003 12.089 16.9109C12.2996 17.1215 12.5852 17.24 12.883 17.2404C13.1808 17.2408 13.4667 17.1231 13.6779 16.9131L17.9205 12.6704C18.1315 12.4594 18.25 12.1733 18.25 11.8749C18.25 11.5766 18.1315 11.2904 17.9205 11.0794L13.6779 6.83683C13.4669 6.62585 13.1807 6.50732 12.8824 6.50732C12.584 6.50732 12.2979 6.62585 12.0869 6.83683C11.8759 7.0478 11.7574 7.33395 11.7574 7.63232C11.7574 7.93069 11.8759 8.21683 12.0869 8.42781L14.409 10.75H2.125C1.82663 10.75 1.54048 10.8685 1.3295 11.0795C1.11853 11.2904 1 11.5766 1 11.875C1 12.1733 1.11853 12.4595 1.3295 12.6704C1.54048 12.8814 1.82663 13 2.125 13H14.409L12.0869 15.3221Z"/>
<path d="M20.875 1H10.375C9.87772 1 9.40081 1.19754 9.04917 1.54917C8.69754 1.90081 8.5 2.37772 8.5 2.875V4.375C8.5 4.67337 8.61853 4.95952 8.8295 5.1705C9.04048 5.38147 9.32663 5.5 9.625 5.5C9.92337 5.5 10.2095 5.38147 10.4205 5.1705C10.6315 4.95952 10.75 4.67337 10.75 4.375V3.25H20.5V20.5H10.75V19.375C10.75 19.0766 10.6315 18.7905 10.4205 18.5795C10.2095 18.3685 9.92337 18.25 9.625 18.25C9.32663 18.25 9.04048 18.3685 8.8295 18.5795C8.61853 18.7905 8.5 19.0766 8.5 19.375V20.875C8.5 21.3723 8.69754 21.8492 9.04917 22.2008C9.40081 22.5525 9.87772 22.75 10.375 22.75H20.875C21.3723 22.75 21.8492 22.5525 22.2008 22.2008C22.5525 21.8492 22.75 21.3723 22.75 20.875V2.875C22.75 2.37772 22.5525 1.90081 22.2008 1.54917C21.8492 1.19754 21.3723 1 20.875 1Z"/>
</svg>
