<svg width="58" height="64" viewBox="0 0 58 64" fill="none" xmlns="http://www.w3.org/2000/svg">
<path fill-rule="evenodd" clip-rule="evenodd" d="M57.9964 14.1167C58.0116 12.69 57.8931 11.265 57.6426 9.85977C57.4398 8.72822 57.3456 7.58043 57.3613 6.43155C57.3613 3.19661 54.6883 0.663332 51.2795 0.663332H47.5646H43.8583C42.7711 0.680996 41.6856 0.58469 40.6192 0.376051C39.2422 0.108948 37.8406 -0.0164875 36.4373 0.00173391C35.0382 -0.0141406 33.6409 0.105985 32.2659 0.360388C31.1957 0.566816 30.1066 0.663101 29.0161 0.647669C27.1746 0.647669 26.2529 0.637223 25.3313 0.626778C24.4096 0.616329 23.4631 0.611115 21.5933 0.611115C20.2215 0.596544 18.8509 0.696133 17.4962 0.908832C16.3974 1.08402 15.2852 1.16441 14.1722 1.1491C13.0544 1.16097 11.9375 1.0841 10.8322 0.919269C9.48211 0.71393 8.11713 0.617864 6.75109 0.632005C3.49604 0.632005 0.00219437 2.96158 0.00219437 6.42111C-0.0273636 8.01362 0.241908 9.59783 0.796489 11.0942C1.1652 12.0575 1.33946 13.0824 1.30951 14.1115C1.33078 15.2191 1.21193 16.3251 0.955705 17.4038C0.610272 18.8446 0.446876 20.3217 0.469221 21.8018C0.456148 23.2072 0.55553 24.6114 0.766428 26.0013C0.946611 27.1533 1.03002 28.318 1.01585 29.4835L0.955705 31.5276C1.11714 32.2108 1.00761 32.9518 0.899244 33.685C0.835666 34.1151 0.772487 34.5426 0.764659 34.954C0.775605 36.1449 0.710024 37.3352 0.568298 38.518C0.412578 39.8862 0.339922 41.2625 0.350711 42.639C0.339831 44.0013 0.403601 45.3632 0.541758 46.7187C0.668239 47.9146 0.7273 49.1166 0.718662 50.319C0.718662 53.5748 3.37222 56.129 6.76347 56.129C8.6634 56.129 9.62752 56.0978 10.5598 56.0662C11.4921 56.035 12.3748 56.014 14.1916 56.014C16.1181 56.014 17.0981 55.9618 18.0464 55.9095C18.9946 55.8573 19.8296 55.8156 21.6198 55.8156C23.5216 55.8156 24.5127 55.746 25.4567 55.6792H25.4569L25.5223 55.6747L25.5844 55.6703C26.4627 55.6091 27.3212 55.5492 29.0373 55.5492C30.2003 55.5403 31.363 55.5909 32.5206 55.7006C32.5968 55.7067 32.6731 55.7132 32.7501 55.7197C33.6531 55.7934 34.6443 55.8747 36.4585 55.8747C37.466 55.8496 38.4705 55.9937 39.4287 56.3014C40.3066 56.5707 41.3429 57.7585 42.4133 58.9852C43.0994 59.7718 43.7999 60.5742 44.4811 61.1612C45.5716 62.4487 47.2059 64.3276 48.6242 63.9511C49.1108 63.8166 49.5131 61.926 49.9179 60.024C50.3441 58.0224 50.7723 56.0091 51.3041 56.0213C54.6122 56.0213 57.0165 53.629 57.0165 50.3259C57.0165 48.4611 57.0536 47.5543 57.0959 46.5948L57.0996 46.5134C57.1412 45.5774 57.1864 44.5596 57.1864 42.641C57.1864 40.805 57.2115 39.8868 57.237 38.9446L57.2395 38.868C57.2411 38.7952 57.2432 38.7222 57.2452 38.6488C57.2703 37.7443 57.2975 36.7622 57.2975 34.9505C57.2975 33.0439 57.3082 32.0984 57.3189 31.1487V31.1358L57.2074 29.48C57.2074 27.5815 57.1634 26.5782 57.1227 25.6407L57.1173 25.5208L57.112 25.3964C57.0713 24.47 57.0322 23.5816 57.0322 21.7949C57.0058 20.7127 57.1449 19.6328 57.4443 18.5913C57.8429 17.133 58.0289 15.6264 57.9964 14.1167ZM54.8767 16.183C54.43 17.7924 54.2186 19.4563 54.2478 21.1246C54.2478 23.3075 54.2947 24.4172 54.3469 25.4904C54.3995 26.5636 54.4407 27.5408 54.4407 29.5989L54.5633 31.3632C54.5513 32.4152 54.5398 33.4942 54.5398 35.631C54.5398 37.7102 54.5106 38.722 54.4756 39.7913C54.4407 40.8605 54.4172 41.9512 54.4172 44.111C54.4172 46.1118 54.3728 47.113 54.3276 48.1401V48.1405L54.3239 48.2251C54.2885 49.0065 54.2535 49.8166 54.2362 51.0396C54.0355 51.3603 53.8035 51.6607 53.5431 51.9364C52.9434 52.5448 52.1918 52.8963 51.4341 53.24C50.6065 53.3392 49.7867 53.4962 48.9813 53.71C48.4403 53.8566 48.2519 55.5079 48.0648 57.1472C47.8706 58.8447 47.6781 60.5297 47.0977 60.5172C46.4976 60.5325 45.1306 58.6354 43.8357 56.8383C42.7391 55.316 41.6942 53.8659 41.2105 53.71C40.9327 53.6246 40.6872 53.5452 40.4622 53.4728C39.4036 53.1303 38.8012 52.9351 37.4315 52.9578C36.1516 52.9671 34.872 52.9112 33.5979 52.7906C32.1574 52.655 30.7109 52.5906 29.2639 52.5987C27.1574 52.5987 26.0604 52.6764 25.0227 52.7505L24.9708 52.7541L24.8858 52.7598C23.9197 52.827 22.9804 52.8922 21.1021 52.8922C19.0512 52.8922 17.975 52.946 16.9648 52.9962L16.8537 53.0019C15.8452 53.0594 14.8911 53.1112 12.9266 53.1112C10.8414 53.1112 9.77445 53.14 8.74839 53.1744L8.69804 53.176C8.10977 53.1926 7.52689 53.2096 6.75076 53.2205C6.35952 53.0869 5.9961 52.8849 5.67796 52.6234C4.85049 51.94 4.29756 51.0149 3.86531 50.0433C3.82442 49.2753 3.77185 48.6648 3.71344 48.0794C3.57427 46.7604 3.50927 45.4349 3.51874 44.109C3.50531 42.7941 3.57554 41.4795 3.72901 40.1735C3.90297 38.6667 3.9849 37.1512 3.97433 35.6348C3.98296 35.0659 4.03932 34.5667 4.09311 34.0901C4.19299 33.2054 4.28403 32.3988 4.04441 31.369L4.24495 29.6027C4.25955 28.0512 4.15017 26.5009 3.91788 24.9663C3.7192 23.696 3.62737 22.4117 3.64335 21.1266C3.61981 19.9045 3.75458 18.6845 4.04441 17.4962C4.42117 15.907 4.59904 14.2784 4.57403 12.6466C4.60101 11.1408 4.38678 9.64018 3.93929 8.20026C3.82832 6.43014 4.20797 4.83285 6.11798 3.96125C6.43784 3.8217 6.76943 3.70992 7.109 3.62718C7.58016 3.67325 7.98904 3.7251 8.41935 3.78846C9.90135 4.00861 11.3987 4.11262 12.8974 4.09946C14.4072 4.11553 15.9156 4.0057 17.4066 3.77117C18.616 3.57825 19.8401 3.4896 21.0651 3.50623H21.0674C23.0927 3.50623 24.1066 3.50623 25.1207 3.5235C26.135 3.54078 27.1767 3.54654 29.2347 3.54654C30.7748 3.56585 32.313 3.43142 33.8257 3.14529C35.0038 2.91992 36.2024 2.81569 37.4023 2.83428C38.5989 2.8161 39.794 2.92423 40.9673 3.15682C42.4836 3.44578 44.0258 3.58215 45.57 3.56383H47.9064C48.5004 3.67012 49.0989 3.69403 49.7151 3.71862C50.2116 3.73846 50.7196 3.75874 51.2453 3.82299C53.0581 4.0361 54.0647 5.26482 54.7188 6.74118C54.7948 7.5974 54.9002 8.25783 54.9993 8.85299C55.2222 10.1007 55.3259 11.3663 55.309 12.6332C55.3469 13.8318 55.2013 15.0292 54.8767 16.1849V16.183Z" fill="#5775FF"/>
<path d="M15.4956 20.5785C15.1398 20.5785 14.9619 19.7286 14.9619 18.029L14.9776 17.1483L14.9932 16.4376V16.2367C15.0037 16.1543 15.009 16.0564 15.009 15.9431C15.009 15.9225 14.9932 15.8968 14.9619 15.8659C14.9305 15.8349 14.9148 15.8092 14.9148 15.7886V15.7732C14.8624 15.7938 14.7682 15.804 14.6322 15.804C14.4961 15.804 14.3287 15.7834 14.1298 15.7422C14.067 15.7319 13.8996 15.7062 13.6274 15.665V17.4419C13.6274 17.7097 13.6431 18.132 13.6745 18.7089C13.7059 19.2754 13.7216 19.6978 13.7216 19.9759C13.7216 20.1304 13.6798 20.2643 13.596 20.3776C13.5123 20.4909 13.4024 20.5476 13.2663 20.5476C13.0675 20.5476 12.9262 20.357 12.8425 19.9759C12.7587 19.5844 12.7168 19.0745 12.7168 18.4462L12.7483 17.1947C12.7587 16.8444 12.7639 16.4736 12.7639 16.0822V15.6032C12.7639 15.4384 12.7587 15.3302 12.7483 15.2787V15.2015L12.7954 14.3053C12.7954 13.9138 12.7797 13.3318 12.7483 12.5593C12.7168 11.7867 12.7012 11.2047 12.7012 10.8133C12.7012 10.6897 12.743 10.5815 12.8268 10.4888C12.9105 10.3961 13.0152 10.3498 13.1407 10.3498C13.4757 10.3498 13.6431 10.6588 13.6431 11.2768L13.6117 13.1928C13.5908 13.7696 13.5803 14.4134 13.5803 15.1242C13.7373 15.1757 14.0199 15.2015 14.4281 15.2015H15.009C15.0299 15.1396 15.0403 15.0778 15.0403 15.016C15.0403 14.5216 15.009 13.7902 14.9461 12.822C14.8729 11.9155 14.8363 11.179 14.8363 10.6124C14.8363 10.4991 14.8781 10.4064 14.9619 10.3343C15.0561 10.2519 15.1659 10.2107 15.2916 10.2107C15.3648 10.2107 15.4695 10.2364 15.6055 10.288L15.7468 10.3498C15.7468 11.8125 15.7992 13.7645 15.9038 16.2058L16.0451 20.115C16.0451 20.2592 15.9876 20.3724 15.8724 20.4549C15.7678 20.5373 15.6421 20.5785 15.4956 20.5785Z" fill="#5775FF"/>
<path d="M18.6515 20.7781C18.5154 20.7781 18.3898 20.7317 18.2747 20.639C18.17 20.5463 18.1125 20.433 18.102 20.2991V19.5883C18.0915 19.4956 18.0863 19.3875 18.0863 19.2639C18.0863 19.0475 18.0706 18.7179 18.0392 18.275L18.0078 17.2861C18.0078 16.7814 18.0235 16.0294 18.0549 15.0302C18.0967 14.134 18.1177 13.3821 18.1177 12.7744C18.1177 12.6302 18.102 12.4138 18.0706 12.1254C18.0392 11.8267 18.0235 11.6104 18.0235 11.4765C18.0235 10.7451 18.2433 10.3794 18.6829 10.3794C19.0282 10.3794 19.426 10.4464 19.876 10.5803C20.3365 10.7142 20.5668 10.8738 20.5668 11.0593C20.5668 11.1623 20.5197 11.2601 20.4255 11.3529C20.3418 11.4352 20.2371 11.5022 20.1115 11.5537C19.6719 11.3992 19.2742 11.2962 18.9184 11.2447C18.9288 11.3992 18.934 11.6207 18.934 11.9091C18.934 12.3211 18.9288 12.6919 18.9184 13.0216C18.8869 13.516 18.8713 13.8868 18.8713 14.134L18.9184 14.3813L19.1695 14.3658C19.2533 14.3555 19.3579 14.3504 19.4835 14.3504C19.9859 14.3504 20.2371 14.4946 20.2371 14.783C20.2371 14.8963 20.19 14.9942 20.0958 15.0766C20.0016 15.1487 19.8813 15.1847 19.7347 15.1847C19.5463 15.1847 19.3998 15.1744 19.2951 15.1539H18.9027C18.9236 15.4217 18.934 15.8131 18.934 16.3281C18.934 16.8432 18.9288 17.3067 18.9184 17.7187C18.8869 18.3471 18.8713 18.8158 18.8713 19.1248C18.8713 19.7016 18.8817 19.9901 18.9027 19.9901L19.4208 19.9746C19.5987 19.9643 19.8132 19.9592 20.0644 19.9592C20.4621 19.9592 20.661 20.0828 20.661 20.33C20.661 20.4742 20.5929 20.5824 20.4569 20.6545C20.3313 20.7369 20.1743 20.7781 19.9859 20.7781H18.6515Z" fill="#5775FF"/>
<path d="M24.8101 20.8246C24.4333 20.7009 23.9676 20.6392 23.4129 20.6392C23.2454 20.7422 23.0675 20.7936 22.8791 20.7936C22.7535 20.7936 22.6436 20.737 22.5494 20.6237C22.4657 20.5207 22.4238 20.4074 22.4238 20.2838C22.4238 19.4185 22.4605 18.2648 22.5337 16.8227C22.5965 15.2879 22.6279 14.1394 22.6279 13.3771V13.2689C22.5651 12.62 22.5337 12.1358 22.5337 11.8165C22.5337 10.8379 22.7169 10.3486 23.0832 10.3486C23.1879 10.3486 23.2768 10.3898 23.3501 10.4722C23.4338 10.5443 23.4757 10.6319 23.4757 10.7349C23.4757 10.8585 23.46 11.0542 23.4286 11.3221C23.3972 11.5796 23.3815 11.7753 23.3815 11.9092C23.3815 12.5993 23.3867 13.2226 23.3972 13.7788C23.4076 14.3247 23.4129 14.9428 23.4129 15.633C23.3605 15.7875 23.3344 16.0038 23.3344 16.2819V16.4673L23.303 17.688C23.2821 18.0485 23.2716 18.4605 23.2716 18.9241C23.2716 19.6348 23.4443 19.9902 23.7897 19.9902C23.8106 19.9902 23.842 19.9902 23.8839 19.9902C23.9362 19.9799 24.0042 19.9748 24.0879 19.9748C24.1821 19.9644 24.3025 19.9593 24.4491 19.9593C25.0142 19.9593 25.2968 20.1138 25.2968 20.4228C25.2968 20.5258 25.2497 20.6134 25.1555 20.6855C25.0613 20.7576 24.9462 20.804 24.8101 20.8246Z" fill="#5775FF"/>
<path d="M29.0094 20.8246C28.6326 20.7009 28.1668 20.6392 27.6121 20.6392C27.4447 20.7422 27.2667 20.7936 27.0783 20.7936C26.9527 20.7936 26.8429 20.737 26.7487 20.6237C26.6649 20.5207 26.623 20.4074 26.623 20.2838C26.623 19.4185 26.6597 18.2648 26.733 16.8227C26.7958 15.2879 26.8272 14.1394 26.8272 13.3771V13.2689C26.7643 12.62 26.733 12.1358 26.733 11.8165C26.733 10.8379 26.9161 10.3486 27.2824 10.3486C27.3871 10.3486 27.4761 10.3898 27.5493 10.4722C27.6331 10.5443 27.6749 10.6319 27.6749 10.7349C27.6749 10.8585 27.6592 11.0542 27.6278 11.3221C27.5964 11.5796 27.5807 11.7753 27.5807 11.9092C27.5807 12.5993 27.586 13.2226 27.5964 13.7788C27.6069 14.3247 27.6121 14.9428 27.6121 15.633C27.5598 15.7875 27.5336 16.0038 27.5336 16.2819V16.4673L27.5022 17.688C27.4813 18.0485 27.4708 18.4605 27.4708 18.9241C27.4708 19.6348 27.6435 19.9902 27.9889 19.9902C28.0098 19.9902 28.0413 19.9902 28.0831 19.9902C28.1354 19.9799 28.2034 19.9748 28.2872 19.9748C28.3814 19.9644 28.5018 19.9593 28.6483 19.9593C29.2134 19.9593 29.496 20.1138 29.496 20.4228C29.496 20.5258 29.4489 20.6134 29.3547 20.6855C29.2605 20.7576 29.1454 20.804 29.0094 20.8246Z" fill="#5775FF"/>
<path d="M32.6298 20.871C32.3575 20.871 32.1065 20.7834 31.8761 20.6083C31.6459 20.4435 31.4575 20.2169 31.3109 19.9284C31.0074 19.3001 30.8191 18.6151 30.7458 17.8734C30.6516 17.173 30.6045 16.4982 30.6045 15.8493C30.6045 15.7257 30.6097 15.6227 30.6202 15.5403V15.2622C30.6202 15.2107 30.6149 15.1849 30.6045 15.1849V14.9068L30.6202 13.8252C30.6307 13.4956 30.6725 12.9702 30.7458 12.2492C30.7981 11.7547 30.9185 11.2757 31.1069 10.8122C31.1801 10.6062 31.2743 10.4517 31.3894 10.3487C31.5046 10.2353 31.6354 10.1787 31.7819 10.1787C32.2007 10.1787 32.5775 10.256 32.9124 10.4105C33.2472 10.5547 33.5298 10.7607 33.7601 11.0285C33.9695 11.2861 34.1472 11.6054 34.2937 11.9865C34.4405 12.3573 34.545 12.7539 34.6079 13.1763C34.6705 13.6089 34.7021 14.0673 34.7021 14.5514V14.675C34.7021 14.9943 34.7071 15.2828 34.7178 15.5403L34.7334 16.421C34.7334 19.3876 34.032 20.871 32.6298 20.871ZM32.5668 20.222C32.7552 20.222 32.928 20.1499 33.0851 20.0057C33.2419 19.8512 33.3624 19.6452 33.4459 19.3876C33.645 18.8623 33.7651 18.2958 33.807 17.688C33.8593 17.1627 33.8856 16.7094 33.8856 16.3283C33.8856 15.8648 33.849 15.257 33.7758 14.505C33.7128 13.7119 33.6816 13.1196 33.6816 12.7282V12.45C33.6606 12.0586 33.5244 11.7187 33.2735 11.4303C33.0325 11.1418 32.7342 10.9976 32.3784 10.9976C32.0227 10.9976 31.7872 11.1985 31.672 11.6002C31.5674 11.9196 31.5151 12.3316 31.5151 12.8363C31.5151 13.032 31.5203 13.1969 31.5307 13.3307V13.7479L31.4993 14.4587C31.4784 14.675 31.468 14.9119 31.468 15.1694C31.468 15.7257 31.4836 16.2768 31.5151 16.8227C31.5569 17.5953 31.6616 18.3473 31.829 19.0786C31.9965 19.8409 32.2423 20.222 32.5668 20.222Z" fill="#5775FF"/>
<path d="M36.6864 22.0292C36.5816 22.0292 36.519 21.9829 36.498 21.8901V21.7974L36.8748 21.3339C37.011 21.1485 37.0999 20.9785 37.1418 20.824C37.1521 20.7931 37.1574 20.7467 37.1574 20.685C37.1574 20.6231 37.1521 20.5768 37.1418 20.5459C36.9744 20.5459 36.8436 20.4995 36.7494 20.4068C36.6655 20.3038 36.6079 20.1493 36.5766 19.9433C36.5449 19.7579 36.5976 19.6188 36.7333 19.5261C36.8802 19.4231 37.0632 19.3716 37.2829 19.3716C37.6075 19.3716 37.8012 19.5415 37.8637 19.8815C37.9057 20.139 37.8325 20.4789 37.6441 20.9013C37.4557 21.3236 37.215 21.6687 36.9217 21.9365C36.8592 21.988 36.7963 22.0189 36.7333 22.0292H36.6864Z" fill="#5775FF"/>
<path d="M14.8727 46.8133C14.5006 46.8133 14.175 46.7307 13.8959 46.566C13.6354 46.4012 13.5052 46.1724 13.5052 45.8793C13.9145 45.4765 14.1192 44.4053 14.1192 42.6656C14.1192 41.6215 14.0354 40.1017 13.868 38.1058C13.6819 36.201 13.5889 34.6994 13.5889 33.6008L13.6447 32.09C13.6633 31.6505 13.6726 31.1469 13.6726 30.5793C13.6726 30.0665 13.5796 29.4164 13.3935 28.6289C13.1702 27.8049 13.0586 27.228 13.0586 26.8984C13.0586 26.2575 13.775 25.937 15.2076 25.937H15.6263C16.6311 25.937 17.5056 26.2392 18.2498 26.8435C18.8452 27.3562 19.3476 28.0979 19.7569 29.0684C20.036 29.7277 20.2779 30.6433 20.4826 31.8153C20.5942 32.8408 20.6501 33.6466 20.6501 34.2326V36.4026C20.6128 36.4759 20.5942 36.5492 20.5942 36.6225C20.5942 36.769 20.6035 36.8787 20.6221 36.952C20.6408 37.0253 20.6501 37.1168 20.6501 37.2265C20.6501 37.8127 20.557 38.5176 20.371 39.3418C20.2035 40.1475 19.9523 40.9718 19.6174 41.8138C18.7801 43.8284 17.8405 45.2567 16.7985 46.0992C16.1845 46.5753 15.5426 46.8133 14.8727 46.8133ZM15.4589 45.2202C16.1473 44.7988 16.752 44.1948 17.273 43.4073C17.794 42.6013 18.194 41.7134 18.4731 40.7426C18.9755 38.9479 19.2267 37.135 19.2267 35.3039C19.2267 34.3148 19.1336 33.2346 18.9476 32.0625C18.7429 30.9272 18.3056 29.9017 17.6358 28.986C17.3195 28.5465 16.9195 28.2078 16.4357 27.9697C15.9519 27.7133 15.403 27.5852 14.789 27.5852V27.6126C14.789 29.2607 14.9007 31.7512 15.1239 35.084C15.3472 38.3985 15.4589 40.9074 15.4589 42.6106V45.2202Z" fill="#5775FF"/>
<path d="M27.6809 47.5278C27.1785 47.5278 26.7226 47.363 26.3133 47.0335C25.904 46.7039 25.5505 46.2549 25.2527 45.6873C24.7132 44.6987 24.3131 43.3433 24.0526 41.6218C23.8666 40.4316 23.727 39.0583 23.6339 37.5017L23.6061 36.0459V34.5625C23.5875 34.0864 23.5781 33.5096 23.5781 32.832C23.5781 31.7332 23.6246 30.7627 23.7177 29.9203C23.7921 29.0413 23.9782 28.1714 24.2759 27.3108C24.5736 26.5599 25.0016 26.0288 25.5598 25.7176C25.8947 25.571 26.2296 25.4978 26.5645 25.4978C27.5506 25.4978 28.3321 25.8824 28.9089 26.6515C29.5416 27.5122 29.9602 28.4736 30.1649 29.5357C30.4626 30.8176 30.63 32.0445 30.6673 33.2165C30.7417 34.5167 30.7789 35.7438 30.7789 36.8973V38.4632C30.7789 38.7745 30.7324 39.3604 30.6393 40.2211C30.5649 40.8988 30.5277 41.4757 30.5277 41.9518V42.0615C30.416 42.5744 30.3602 43.1785 30.3602 43.8744C30.3602 44.3874 30.2486 44.9181 30.0253 45.4675C29.802 46.0169 29.4857 46.4841 29.0764 46.8687C28.667 47.3079 28.2019 47.5278 27.6809 47.5278ZM27.7367 46.0169C28.1088 46.0169 28.4252 45.6784 28.6856 45.0007C28.9089 44.3963 29.0671 43.6639 29.1601 42.8032C29.2718 41.9243 29.3648 40.9352 29.4392 39.8365C29.4764 39.3604 29.495 38.747 29.495 37.996L29.4671 35.4689C29.4299 34.4803 29.3183 33.244 29.1322 31.7607C28.9834 30.4971 28.7043 29.3801 28.2949 28.4095C28.1088 27.9517 27.8763 27.5946 27.5972 27.3382C27.3181 27.0818 27.0204 26.9536 26.704 26.9536C26.2389 26.9536 25.8947 27.3108 25.6714 28.0249C25.3923 28.7757 25.2062 29.5998 25.1132 30.4971C25.0016 31.4677 24.9364 32.3925 24.9178 33.2715L24.8899 34.1779C24.8713 34.4342 24.862 34.7823 24.862 35.2216V35.3317C24.862 36.5584 24.9923 38.0693 25.2527 39.864C25.5505 42.2996 25.9877 44.0303 26.5645 45.0558C26.9366 45.6966 27.3274 46.0169 27.7367 46.0169Z" fill="#5775FF"/>
<path d="M37.7982 47.1975C37.277 47.1975 36.7933 47.0784 36.3465 46.8404C35.9187 46.6023 35.5465 46.2817 35.2301 45.8789C34.9512 45.4943 34.6999 45.0093 34.4765 44.423C34.2536 43.8186 34.0862 43.1959 33.9743 42.5551C33.7509 41.4749 33.602 40.0555 33.528 38.2977C33.509 37.8762 33.5 37.1532 33.5 36.1273V34.397C33.5185 33.9025 33.528 33.3897 33.528 32.8587C33.528 31.7782 33.593 30.9267 33.723 30.3041C33.6674 30.0294 33.6394 29.7456 33.6394 29.4525C33.6394 28.3538 34.0582 27.4656 34.8953 26.7881C35.7328 26.1105 36.7933 25.7717 38.0771 25.7717C38.5608 25.7717 39.0075 25.8999 39.4168 26.1563C39.8261 26.4126 40.0306 26.7331 40.0306 27.1177C40.0306 27.3008 39.9565 27.4473 39.8076 27.5572C39.6587 27.6671 39.4724 27.722 39.2494 27.722C39.0631 27.722 38.8586 27.6946 38.6353 27.6396C38.4304 27.5846 38.3004 27.5023 38.2445 27.3924H37.8817V27.3374C37.1931 27.3374 36.6164 27.484 36.1511 27.7769C35.8163 28.015 35.5559 28.4087 35.37 28.9581C35.2955 29.1595 35.2396 29.4159 35.2022 29.7272C35.1651 30.0386 35.1466 30.3224 35.1466 30.5788C35.1281 30.7253 35.1187 31.0183 35.1187 31.4577L35.1746 32.4192L35.2022 33.3531C35.2022 33.6278 35.1651 33.9483 35.0907 34.3144C34.9977 34.7722 34.9512 35.0929 34.9512 35.2759V35.9354C34.9512 36.6495 34.9792 37.6293 35.0347 38.8742C35.0537 39.9183 35.1746 40.962 35.3975 42.0057C35.5654 42.9765 35.8817 43.8004 36.3465 44.4781C36.7933 45.174 37.3979 45.5218 38.161 45.5218C38.4773 45.5218 38.8677 45.357 39.3329 45.0275C39.8356 44.6979 40.1889 44.5327 40.3938 44.5327C40.6542 44.5327 40.924 44.6704 41.2029 44.9449C41.2029 45.6226 40.9425 46.1444 40.4213 46.5108C39.9376 46.8404 39.3609 47.0509 38.6912 47.1424C38.3189 47.1792 38.0211 47.1975 37.7982 47.1975Z" fill="#5775FF"/>
<path d="M44.7455 42.6657C44.5596 42.6657 44.3827 42.4365 44.2153 41.9787C44.0479 41.5026 43.964 40.7977 43.964 39.8637C43.964 39.5342 43.9829 38.9115 44.0199 37.9957C44.0573 37.3184 44.0759 36.5674 44.0759 35.7436L43.964 26.7336C43.964 26.4406 44.0849 26.1934 44.3268 25.992C44.5691 25.7722 44.8385 25.6624 45.1363 25.6624C45.3222 25.6624 45.4806 25.7264 45.611 25.8546C45.741 25.9828 45.8064 26.1476 45.8064 26.3491C45.8064 27.9606 45.713 30.1489 45.5271 32.9141C45.3222 35.9723 45.2202 38.1605 45.2202 39.4791C45.2202 40.4495 45.2013 41.1548 45.1643 41.5944C45.1458 42.0155 45.0993 42.2993 45.0248 42.4458C44.9689 42.5924 44.8759 42.6657 44.7455 42.6657ZM44.2433 47.3627C44.0199 47.3627 43.806 47.2619 43.6012 47.0607C43.4152 46.8591 43.3223 46.6117 43.3223 46.319C43.3223 45.9895 43.4337 45.7053 43.6571 45.4672C43.8805 45.211 44.1503 45.0826 44.4666 45.0826C44.8015 45.0826 45.0713 45.211 45.2758 45.4672C45.4991 45.7053 45.611 46.0166 45.611 46.4012C45.611 47.0421 45.1548 47.3627 44.2433 47.3627Z" fill="#5775FF"/>
<path d="M15.2908 9.80566C15.0644 9.80566 14.8573 9.88331 14.6879 10.0315C14.5163 10.1793 14.4242 10.3833 14.4242 10.6122C14.4242 11.1911 14.4613 11.9377 14.5353 12.8539L14.5669 13.3661C14.592 13.7998 14.6094 14.1755 14.6191 14.492L14.6263 14.7961L14.3382 14.796C14.2516 14.7951 14.1725 14.7928 14.1014 14.7893L13.9916 14.7823L13.9928 14.6071C13.9967 14.1028 14.0065 13.6361 14.0221 13.207L14.0537 11.2832C14.0537 10.4646 13.772 9.94473 13.14 9.94473C12.8968 9.94473 12.6802 10.0406 12.5185 10.2197C12.368 10.3865 12.2891 10.5903 12.2891 10.8131L12.2912 11.0952C12.2946 11.3348 12.302 11.6217 12.3133 11.9559L12.3594 13.1872C12.3753 13.6575 12.3833 14.0304 12.3833 14.3051L12.3367 15.1804L12.3362 15.2785L12.3467 15.3836C12.3489 15.4161 12.351 15.4751 12.3516 15.5536L12.3518 16.082C12.3518 16.3727 12.3489 16.6517 12.3431 16.9191L12.3049 18.436C12.3047 19.1001 12.3488 19.6366 12.4392 20.0591C12.5595 20.6069 12.8155 20.9522 13.2656 20.9522C13.535 20.9522 13.7678 20.8322 13.9279 20.6156C14.0642 20.4312 14.1322 20.2137 14.1322 19.9757L14.1309 19.8202C14.1282 19.6529 14.1216 19.4501 14.111 19.2115L14.0603 18.2042C14.0454 17.8754 14.038 17.6209 14.038 17.4417L14.0377 16.1374L14.0615 16.1414L14.1843 16.165C14.3054 16.1863 14.4208 16.2002 14.5276 16.2059L14.5827 16.2074L14.5811 16.2365V16.4374L14.5656 17.1393L14.5498 18.0217L14.5511 18.2907C14.5688 20.127 14.7805 20.9831 15.4949 20.9831C15.7326 20.9831 15.9492 20.9121 16.1286 20.7708C16.3361 20.6228 16.4557 20.3874 16.4557 20.1148L16.3141 16.1912L16.2787 15.3332C16.2013 13.3808 16.161 11.7767 16.1577 10.5198L16.1574 10.0864L15.7718 9.91782C15.5734 9.84211 15.4253 9.80566 15.2908 9.80566ZM15.4377 15.1738L15.4462 15.105L15.4921 16.2227L15.6329 20.1259L15.6297 20.1273L15.6037 20.1454L15.5852 20.1551L15.5786 20.1412C15.5511 20.0754 15.5228 19.9807 15.4974 19.8592C15.4152 19.4667 15.3724 18.8535 15.3724 18.0288L15.3881 17.1552L15.4037 16.4462L15.4038 16.256L15.4006 16.2868C15.4134 16.1863 15.4195 16.0721 15.4195 15.9429L15.4157 15.882C15.4056 15.8037 15.3761 15.7367 15.334 15.6759L15.3252 15.6645V15.5451L15.3984 15.3293C15.4158 15.278 15.4289 15.2262 15.4377 15.1738ZM13.1714 15.4167L13.215 15.4309L13.2153 17.4417C13.2153 17.6757 13.2267 18.0184 13.2494 18.4719L13.2833 19.1231C13.3008 19.4889 13.3095 19.7736 13.3095 19.9757L13.3076 20.016L13.302 20.0519L13.296 20.0721L13.2857 20.044C13.2712 20.0015 13.257 19.9502 13.2438 19.8902C13.1671 19.5319 13.1274 19.0486 13.1274 18.446L13.1587 17.2045C13.1671 16.9225 13.1722 16.6263 13.1739 16.3167L13.1744 15.55L13.1714 15.4167ZM13.136 10.7538L13.14 10.7544C13.1778 10.7544 13.231 10.8526 13.231 11.2766L13.1997 13.1861L13.1907 13.4516L13.1711 12.8641L13.1417 12.1057C13.1217 11.5527 13.1118 11.1214 13.1118 10.8131C13.1118 10.7969 13.1139 10.7859 13.1203 10.7749L13.136 10.7538ZM15.2908 10.6154L15.2989 10.6163L15.3351 10.6246L15.3357 10.6973C15.339 11.3388 15.3514 12.0645 15.3729 12.8746L15.3828 13.2293L15.3559 12.796L15.3408 12.6052L15.3119 12.2077C15.2724 11.6306 15.251 11.1398 15.2474 10.7337L15.2467 10.6274L15.232 10.6388C15.2533 10.6201 15.266 10.6154 15.2908 10.6154Z" fill="#5775FF"/>
<path d="M18.6821 9.97485C17.9577 9.97485 17.6114 10.5511 17.6114 11.4768C17.6114 11.6111 17.6244 11.806 17.6503 12.0665L17.6804 12.3611C17.6973 12.541 17.7056 12.6795 17.7056 12.7747C17.7056 13.3753 17.6848 14.1212 17.6432 15.0119L17.6181 15.8834C17.6032 16.4686 17.5957 16.9356 17.5957 17.2864L17.6273 18.2879L17.6495 18.6277C17.664 18.87 17.672 19.0616 17.6738 19.2054L17.6753 19.3647C17.6768 19.4299 17.6798 19.4914 17.6844 19.5493L17.6895 19.6037L17.6899 20.2994C17.7097 20.5689 17.8162 20.7786 17.9988 20.9403C18.2004 21.1032 18.4173 21.1833 18.6507 21.1833H19.9851C20.2506 21.1833 20.4868 21.1212 20.6844 20.9916C20.9183 20.8696 21.0716 20.626 21.0716 20.3303C21.0716 19.8104 20.6601 19.5546 20.0636 19.5546L19.9372 19.5551L19.7026 19.5587C19.5913 19.5613 19.4891 19.5654 19.3958 19.5708L19.2847 19.5738L19.282 19.2283L19.2821 19.0525C19.2843 18.7524 19.2997 18.3132 19.3285 17.7389L19.3364 17.3639C19.3386 17.2354 19.3404 17.1032 19.3417 16.9672L19.3444 16.1884L19.3404 15.8051L19.3345 15.5694L19.3617 15.5731C19.4685 15.5845 19.592 15.5899 19.734 15.5899C19.9675 15.5899 20.1768 15.5272 20.3476 15.3965C20.5482 15.2222 20.6477 15.0154 20.6477 14.7833C20.6477 14.213 20.1824 13.9459 19.4828 13.9459L19.3805 13.947C19.3477 13.9477 19.3161 13.9489 19.2843 13.95L19.2853 13.9121C19.2914 13.6896 19.3057 13.4008 19.3282 13.0471C19.3356 12.816 19.3405 12.5723 19.3428 12.3122L19.3439 11.744L19.3819 11.7534C19.5677 11.8016 19.7646 11.8622 19.9724 11.9353L20.1221 11.9879L20.2689 11.9277C20.4425 11.8566 20.5924 11.7607 20.7156 11.6394C20.8824 11.4752 20.9774 11.278 20.9774 11.0596C20.9774 10.6248 20.6151 10.3736 19.9918 10.1923C19.5081 10.0484 19.0714 9.97485 18.6821 9.97485ZM18.5114 20.2684L18.5114 20.1248L18.5355 20.1782L18.547 20.2007C18.5871 20.2776 18.6079 20.2944 18.7873 20.3563L18.8376 20.3734L18.6507 20.3736C18.612 20.3736 18.5778 20.3609 18.5344 20.326C18.5223 20.3147 18.5137 20.2977 18.5114 20.2684ZM18.4653 15.0431L18.4706 14.9192L18.4918 15.1852L18.5017 15.3371C18.5136 15.5562 18.5203 15.8421 18.5217 16.1936L18.5207 16.7545C18.5185 17.099 18.5138 17.4172 18.5064 17.7089L18.4771 18.3615L18.4694 18.5665L18.4488 18.2471L18.4182 17.2738L18.4224 16.7762C18.4289 16.3245 18.4432 15.745 18.4653 15.0431ZM18.478 14.7492L18.4941 14.3553L18.569 14.7492H18.478ZM18.4813 10.9846L18.4863 10.9683L18.5072 11.2719C18.5169 11.4158 18.5219 11.6292 18.5219 11.9094L18.5196 12.3666L18.5175 12.5108L18.5159 12.4809C18.5097 12.3946 18.5012 12.2984 18.4904 12.1921L18.4611 11.9048C18.4431 11.7114 18.4341 11.5674 18.4341 11.4768C18.4341 11.2506 18.4506 11.0922 18.4813 10.9846ZM18.6821 10.7846C18.9836 10.7846 19.3423 10.8449 19.7562 10.9681L19.8355 10.9922C19.9363 11.0244 20.0177 11.0565 20.0792 11.0871L20.0983 11.0975L20.0757 11.1137L19.9088 11.0605C19.5761 10.9583 19.2658 10.8862 18.9775 10.8444L18.6245 10.793L18.6353 10.79C18.6502 10.7863 18.6658 10.7846 18.6821 10.7846Z" fill="#5775FF"/>
<path d="M23.0805 9.94409C22.375 9.94409 22.1197 10.6263 22.1197 11.8168C22.1197 12.1518 22.1518 12.6471 22.2157 13.3076L22.2069 14.082C22.1945 14.7849 22.1655 15.6934 22.12 16.8067L22.0864 17.5053C22.0353 18.63 22.0098 19.5567 22.0098 20.2841C22.0098 20.5013 22.0844 20.7033 22.2255 20.8769C22.3972 21.0835 22.6209 21.1988 22.8764 21.1988L22.9757 21.1954C23.1401 21.184 23.2989 21.1441 23.4503 21.0768L23.5144 21.0455L23.4102 21.0443C23.9237 21.0443 24.3466 21.1004 24.6773 21.209L24.7717 21.2399L24.87 21.225C25.0729 21.1943 25.2536 21.1215 25.4053 21.0054C25.5962 20.8593 25.7054 20.6562 25.7054 20.4232C25.7054 19.8265 25.2085 19.5548 24.4463 19.5548L24.353 19.5555C24.2628 19.5569 24.1817 19.5604 24.1093 19.5662L24.0639 19.5703L24.0065 19.5716C23.9558 19.5734 23.9087 19.5771 23.8645 19.583L23.8471 19.5856H23.787C23.7534 19.5856 23.688 19.4549 23.6808 19.0068L23.6802 18.9244C23.6802 18.4683 23.6905 18.0638 23.711 17.7114L23.7429 16.4779L23.743 16.2822C23.743 16.0439 23.7643 15.8679 23.8004 15.7613L23.8215 15.699L23.8205 15.1273C23.8192 14.799 23.8166 14.4888 23.8127 14.1964L23.7989 13.3441C23.7931 12.904 23.7901 12.4258 23.7901 11.9095L23.7929 11.8112C23.7974 11.7189 23.8077 11.601 23.8239 11.4588L23.8343 11.3706C23.8676 11.0866 23.8843 10.878 23.8843 10.7352L23.8808 10.6622C23.8647 10.4941 23.7925 10.3422 23.6726 10.2189L23.639 10.1875L23.6569 10.2059C23.5069 10.0372 23.3059 9.94409 23.0805 9.94409ZM22.8574 18.8423L22.8585 19.0169C22.871 19.5954 23.0027 20.0235 23.2844 20.2391L23.1922 20.2961L23.1304 20.3301C23.0686 20.3601 23.0062 20.3783 22.9417 20.3855L22.8784 20.3889L22.8799 20.3883L22.8742 20.3789C22.8719 20.376 22.869 20.3723 22.8651 20.3676C22.8415 20.3387 22.8325 20.3141 22.8325 20.2841L22.8342 19.9435C22.8366 19.707 22.8413 19.4519 22.8483 19.1781L22.8574 18.8423ZM23.0573 10.8466L23.0554 10.8853C23.0513 10.9461 23.045 11.0175 23.0367 11.0991L22.9955 11.4675C22.9769 11.6478 22.9674 11.7946 22.9674 11.9095L22.9681 12.4482L22.9626 12.3562C22.9513 12.1737 22.9448 12.0193 22.9429 11.8908L22.9424 11.8168C22.9424 11.4082 22.9763 11.1019 23.0371 10.9064L23.0573 10.8466Z" fill="#5775FF"/>
<path d="M27.2817 9.94409C26.5762 9.94409 26.3208 10.6263 26.3208 11.8168L26.3231 11.9828C26.3315 12.3081 26.3628 12.7487 26.4169 13.3076L26.412 13.8283C26.4027 14.5617 26.3724 15.5551 26.3212 16.8067L26.2875 17.5053C26.2365 18.63 26.2109 19.5567 26.2109 20.2841C26.2109 20.5013 26.2856 20.7034 26.4268 20.877C26.5984 21.0835 26.8221 21.1988 27.0776 21.1988L27.1769 21.1954C27.3413 21.184 27.5001 21.1441 27.6515 21.0768L27.7159 21.0455L27.6114 21.0443C28.1249 21.0443 28.5477 21.1004 28.8785 21.209L28.9728 21.2399L29.0712 21.225C29.2741 21.1943 29.4548 21.1215 29.6065 21.0054C29.7973 20.8593 29.9066 20.6562 29.9066 20.4232C29.9066 19.8265 29.4096 19.5548 28.6475 19.5548L28.5542 19.5555C28.464 19.5569 28.3829 19.5604 28.3105 19.5662L28.265 19.5703L28.2077 19.5716C28.157 19.5734 28.1098 19.5771 28.0657 19.583L28.0482 19.5856H27.9881C27.9526 19.5856 27.8814 19.4391 27.8814 18.9244L27.8839 18.5459C27.8881 18.2411 27.8975 17.9629 27.9121 17.7114L27.9441 16.4779L27.9442 16.2822C27.9442 16.0438 27.9655 15.8679 28.0016 15.7614L28.0227 15.699L28.0205 14.8853C28.0195 14.7257 28.0182 14.5705 28.0165 14.4198L27.9974 13.1197C27.9933 12.7421 27.9913 12.3386 27.9913 11.9095L27.994 11.8112C27.9986 11.7189 28.0089 11.601 28.0251 11.4588L28.0573 11.1718C28.0761 10.9867 28.0855 10.8424 28.0855 10.7352L28.082 10.6622C28.0658 10.494 27.9936 10.3421 27.8737 10.2189L27.8401 10.1875L27.8581 10.2059C27.7081 10.0372 27.5071 9.94409 27.2817 9.94409ZM27.0589 18.8407L27.0587 18.9244L27.0597 19.0169C27.0722 19.5954 27.2039 20.0235 27.4855 20.2395L27.3934 20.2961L27.3316 20.3301C27.2698 20.3601 27.2074 20.3783 27.1429 20.3855L27.0799 20.3889L27.0811 20.3883C27.0813 20.3867 27.078 20.3817 27.0663 20.3676C27.0427 20.3386 27.0336 20.3141 27.0336 20.2841L27.0354 19.9435C27.0377 19.707 27.0424 19.4519 27.0495 19.1781L27.0589 18.8407ZM27.2584 10.8474L27.2566 10.8855C27.2524 10.9463 27.2462 11.0177 27.2379 11.0993L27.1967 11.4675C27.1781 11.6478 27.1686 11.7946 27.1686 11.9095L27.1696 12.4478L27.1638 12.3562C27.1502 12.1372 27.1435 11.9586 27.1435 11.8168C27.1435 11.4082 27.1775 11.1019 27.2383 10.9064L27.2584 10.8474Z" fill="#5775FF"/>
<path d="M31.7812 9.77368C32.2585 9.77368 32.6949 9.86315 33.0765 10.0394C33.4685 10.2082 33.8022 10.4515 34.0806 10.7754C34.3183 11.0678 34.5166 11.424 34.6762 11.8393C34.8342 12.2384 34.9467 12.6645 35.0144 13.1191C35.069 13.4968 35.1009 13.8914 35.11 14.3026L35.1127 14.5512V14.6748C35.1127 14.8668 35.1145 15.0449 35.1183 15.2122L35.1283 15.533L35.144 16.4208C35.144 19.5843 34.3444 21.2756 32.629 21.2756C32.2641 21.2756 31.9251 21.1575 31.6335 20.9355C31.3478 20.7311 31.1173 20.4538 30.9387 20.1021C30.6143 19.4306 30.4134 18.7001 30.3372 17.9263C30.2407 17.2086 30.1924 16.5161 30.1924 15.8491L30.1929 15.7812L30.197 15.6552L30.2012 15.5893L30.1924 15.5896V14.9008L30.2083 13.8123L30.2143 13.6656C30.231 13.3254 30.2715 12.8403 30.3359 12.207C30.3851 11.7418 30.4905 11.2889 30.6474 10.8604L30.7179 10.6783C30.8121 10.4133 30.9409 10.2019 31.0978 10.0622C31.2879 9.8751 31.5222 9.77368 31.7812 9.77368ZM32.3777 11.4023C32.2304 11.4023 32.1483 11.4627 32.0797 11.6695L32.0628 11.7243C31.9728 11.9987 31.9256 12.3704 31.9256 12.8361C31.9256 12.985 31.9288 13.1139 31.9355 13.2381L31.9413 13.3306L31.9409 13.7653L31.9081 14.4969C31.8884 14.6998 31.8785 14.9239 31.8785 15.1693C31.8785 15.7183 31.894 16.2617 31.9251 16.801C31.9657 17.5509 32.0672 18.2803 32.2303 18.9929L32.2719 19.1679C32.3908 19.6308 32.5162 19.817 32.5661 19.817C32.6463 19.817 32.7203 19.7861 32.7932 19.7195C32.8877 19.6263 32.9666 19.4998 33.0323 19.3243L33.0597 19.246C33.2444 18.7587 33.3565 18.2307 33.3969 17.6484C33.448 17.1341 33.4735 16.6939 33.4735 16.3281C33.4735 15.8793 33.4376 15.2837 33.3649 14.5364L33.3306 14.0797C33.3001 13.6468 33.2809 13.2852 33.2733 12.9948L33.2695 12.728L33.27 12.4712C33.2538 12.1683 33.1518 11.9136 32.9551 11.6873C32.7907 11.4906 32.6081 11.4023 32.3777 11.4023ZM34.0926 12.6992L34.0938 12.8907C34.101 13.2668 34.1313 13.7951 34.1845 14.4662L34.2186 14.8361C34.2703 15.4327 34.2962 15.9296 34.2962 16.3281C34.2962 16.7228 34.2693 17.1885 34.2167 17.7153C34.172 18.3619 34.0436 18.9668 33.837 19.5105C33.8039 19.6125 33.7656 19.7089 33.7215 19.7998C34.0988 19.1835 34.3057 18.1318 34.3205 16.606L34.3214 16.4279L34.306 15.5566C34.297 15.3407 34.2919 15.1017 34.2905 14.8368L34.29 14.5512C34.29 14.0873 34.2599 13.6477 34.2002 13.2348C34.1727 13.0506 34.1369 12.8722 34.0926 12.6992ZM31.1036 12.8117L31.071 13.1862C31.0555 13.378 31.0442 13.5428 31.0372 13.6797L31.0307 13.8308L31.0151 14.9066L31.0149 15.1072L31.0189 15.1248L31.0259 15.1689L31.0297 15.214L31.0308 15.262V15.5401L31.0276 15.5902L31.0197 15.6778C31.0167 15.727 31.0151 15.7843 31.0151 15.8491C31.0151 16.4798 31.0609 17.1368 31.1544 17.8341C31.1965 18.2595 31.2785 18.6639 31.3998 19.046L31.427 19.1674C31.2544 18.4136 31.1466 17.6391 31.1036 16.8454C31.0718 16.2922 31.0558 15.7335 31.0558 15.1693C31.0558 14.9533 31.0629 14.7503 31.0763 14.5709L31.0876 14.4409L31.1186 13.7478L31.1198 13.3616C31.1108 13.2453 31.1054 13.1102 31.1036 12.9557L31.1036 12.8117ZM31.7812 10.5834C31.7471 10.5834 31.7197 10.5953 31.6653 10.6481C31.6062 10.701 31.5467 10.7986 31.488 10.9624C31.4631 11.0239 31.4394 11.0856 31.417 11.1476C31.5844 10.8531 31.8395 10.6657 32.1659 10.61C32.0436 10.5924 31.9154 10.5834 31.7812 10.5834Z" fill="#5775FF"/>
<path d="M37.2821 18.9673C36.9809 18.9673 36.7144 19.0422 36.4938 19.197C36.225 19.3805 36.1132 19.6776 36.1702 20.011C36.2101 20.2745 36.2919 20.494 36.4277 20.6606L36.4578 20.6936L36.5125 20.7431C36.5502 20.7743 36.5902 20.8019 36.6322 20.826L36.689 20.8557L36.6733 20.8888C36.6388 20.9545 36.595 21.0233 36.5407 21.0973L36.0859 21.656V21.8907L36.0958 21.9787C36.1599 22.2621 36.3934 22.4346 36.6857 22.4346H36.7326L36.8002 22.4291C36.9406 22.4061 37.0693 22.3428 37.185 22.2475C37.537 21.9267 37.8097 21.5359 38.0199 21.0646C38.2372 20.5775 38.3258 20.1661 38.2691 19.8179C38.1707 19.2826 37.8115 18.9673 37.2821 18.9673ZM37.2821 19.777C37.402 19.777 37.4302 19.8017 37.4582 19.9542L37.4629 19.9961C37.4658 20.0404 37.4634 20.0914 37.4554 20.1488L37.4508 20.1768L37.4391 20.1416H37.141L37.1069 20.1406C37.0869 20.1392 37.0724 20.1366 37.0617 20.1333L37.053 20.1294L37.0421 20.1081C37.0194 20.0594 36.998 19.9848 36.9827 19.884L36.979 19.8668C36.9778 19.8626 36.9767 19.8597 36.9732 19.8554L36.9671 19.8593C37.0445 19.805 37.1441 19.777 37.2821 19.777Z" fill="#5775FF"/>
<path d="M15.6255 25.5327C16.7248 25.5327 17.6921 25.8669 18.5199 26.5393C19.167 27.0966 19.7041 27.8895 20.1359 28.9133C20.4286 29.6047 20.6778 30.5479 20.8908 31.7728L20.9306 32.1519C21.011 32.9512 21.0542 33.6058 21.06 34.1176L21.0606 34.2332V36.4988L21.0172 36.5842C21.0078 36.6028 21.0048 36.6145 21.0048 36.623L21.0069 36.727C21.0089 36.7726 21.0122 36.8084 21.0162 36.8332L21.0204 36.8543C21.0481 36.9632 21.0606 37.0866 21.0606 37.2271C21.0606 37.7942 20.9794 38.4575 20.8189 39.2147L20.7732 39.4235C20.6008 40.2528 20.3428 41.0992 19.9974 41.9677C19.1365 44.0388 18.1616 45.5209 17.0523 46.4177C16.3686 46.9479 15.6383 47.2187 14.872 47.2187C14.4279 47.2187 14.0291 47.1177 13.6727 46.9071C13.3209 46.6846 13.1209 46.3594 13.0957 45.9654L13.093 45.8799V45.7122L13.2135 45.5936C13.5067 45.3051 13.6947 44.3617 13.7065 42.8221L13.7071 42.6662C13.7071 41.6355 13.6239 40.1257 13.4577 38.1451L13.411 37.6542C13.2624 36.0483 13.1844 34.7463 13.1775 33.736L13.177 33.5866L13.245 31.7366C13.2553 31.3874 13.2605 31.0018 13.2605 30.5798C13.2605 30.1021 13.1716 29.4811 12.9953 28.7338L12.9182 28.442C12.7374 27.7385 12.6465 27.23 12.6465 26.899C12.6465 25.9717 13.5262 25.5543 15.0826 25.5335L15.2069 25.5327H15.6255ZM15.6255 26.3424H15.2069C13.9753 26.3424 13.4692 26.5688 13.4692 26.899C13.4692 27.1831 13.5757 27.7335 13.7934 28.5378C13.986 29.353 14.0832 30.0321 14.0832 30.5798L14.0814 30.9977C14.0785 31.3359 14.0719 31.6488 14.0616 31.936L13.9994 33.6014C13.9994 34.6848 14.0917 36.1744 14.2772 38.0731L14.3515 38.9995C14.4646 40.4826 14.524 41.661 14.5294 42.5371L14.5298 42.6662C14.5298 44.2249 14.374 45.2837 14.0155 45.8813L13.9749 45.9458L13.9326 46.0061L13.9356 46.0174C13.9536 46.0719 13.9841 46.1184 14.0288 46.1601L14.0651 46.1905L14.1067 46.2193C14.3197 46.3451 14.5722 46.409 14.872 46.409C15.4453 46.409 15.9989 46.2037 16.5366 45.7869C17.518 44.9934 18.4223 43.6188 19.2336 41.6668C19.5237 40.9374 19.7491 40.2225 19.9109 39.5182L19.9686 39.2546C20.1487 38.4569 20.238 37.7805 20.238 37.2271C20.238 37.1638 20.2341 37.1131 20.2276 37.0759L20.2223 37.0507C20.1939 36.9388 20.1821 36.7998 20.1821 36.623C20.1821 36.5678 20.1876 36.5131 20.1983 36.4591L20.2184 36.3788L20.2378 36.3225L20.238 34.2332L20.2354 34.0104C20.2261 33.583 20.1912 33.0527 20.1319 32.4288L20.0971 32.0793L20.0764 31.8845C19.8765 30.7398 19.6419 29.8517 19.3763 29.2242C18.9896 28.3074 18.5219 27.6169 17.9873 27.1563C17.3548 26.6427 16.6223 26.3733 15.7761 26.3449L15.6255 26.3424ZM14.7883 27.1809C15.4685 27.1809 16.0844 27.3247 16.6189 27.6081C17.1634 27.8761 17.6154 28.2589 17.9688 28.75C18.675 29.7152 19.1364 30.7975 19.3532 32.0006C19.5425 33.1926 19.6373 34.2936 19.6373 35.3044C19.6373 37.172 19.3811 39.0211 18.8681 40.8534C18.5784 41.8611 18.1622 42.7851 17.6169 43.6288C17.1014 44.408 16.5033 45.0232 15.8225 45.4711L15.6754 45.5646L15.0467 45.9494V42.6111C15.0467 41.1178 14.9601 38.995 14.7867 36.2448L14.6383 33.9661C14.4755 31.3759 14.3887 29.3579 14.378 27.9103L14.3769 27.6132V27.1809H14.7883ZM15.2219 28.0156L15.2012 28.0134L15.2066 28.377C15.2303 29.7647 15.3146 31.6116 15.4594 33.9164L15.6251 36.4714C15.7711 38.8311 15.8517 40.7197 15.8668 42.1387L15.8694 42.6111L15.8693 44.4143L15.8934 44.3941C16.2265 44.1013 16.5353 43.7518 16.8197 43.3456L16.9251 43.1906C17.4246 42.4178 17.8083 41.566 18.0758 40.6356C18.5684 38.8758 18.8146 37.099 18.8146 35.3044C18.8146 34.3375 18.7233 33.2779 18.5418 32.1338C18.3478 31.0579 17.9347 30.0892 17.2993 29.2206C17.0221 28.8353 16.6741 28.5406 16.2399 28.3267C15.933 28.1641 15.5944 28.0602 15.2219 28.0156Z" fill="#5775FF"/>
<path d="M26.5638 25.0935C27.6799 25.0935 28.5844 25.5386 29.2414 26.4148C29.9096 27.3238 30.3524 28.3405 30.5651 29.4461C30.8686 30.7527 31.0396 32.0055 31.0772 33.1943C31.1437 34.3567 31.1807 35.4614 31.1881 36.508L31.1895 36.8978V38.4638C31.1895 38.7356 31.1574 39.1877 31.0932 39.8277L31.0475 40.2651C30.9819 40.8631 30.9459 41.3788 30.9394 41.8113L30.9383 42.0621L30.9291 42.1469C30.824 42.6298 30.7708 43.206 30.7708 43.875C30.7708 44.4413 30.6486 45.0227 30.4065 45.6184C30.1616 46.221 29.8122 46.7369 29.3788 47.1429C28.8945 47.6625 28.3216 47.9332 27.6801 47.9332C27.0814 47.9332 26.5339 47.7353 26.0521 47.3474C25.5969 46.9809 25.2089 46.4884 24.8896 45.8795C24.3504 44.8915 23.9498 43.5725 23.6826 41.922L23.6453 41.6839C23.4697 40.5603 23.3353 39.2783 23.2414 37.8241L23.2219 37.5099L23.1939 36.0464L23.1942 34.5786L23.1831 34.2423C23.1717 33.8327 23.166 33.3628 23.166 32.8325C23.166 31.7199 23.2132 30.735 23.307 29.8872C23.3842 28.975 23.5773 28.0727 23.8919 27.1641C24.222 26.3315 24.7096 25.7264 25.3919 25.3482C25.7782 25.1792 26.1699 25.0935 26.5638 25.0935ZM26.5638 25.9032C26.2878 25.9032 26.0095 25.9641 25.7618 26.0703C25.2919 26.3324 24.9236 26.7894 24.6645 27.4418C24.3776 28.2714 24.1985 29.1088 24.1259 29.9646C24.0345 30.7914 23.9887 31.7476 23.9887 32.8325L23.9901 33.2659C23.9928 33.6848 23.9997 34.0606 24.0108 34.3977L24.0166 34.563L24.0166 36.0388L24.0438 37.4785C24.1361 39.0229 24.2744 40.3838 24.4587 41.5627C24.7128 43.2419 25.1002 44.5543 25.6175 45.5022C25.8908 46.0232 26.2099 46.4284 26.573 46.7206C26.9098 46.9918 27.2741 47.1235 27.6801 47.1235C28.0804 47.1235 28.4379 46.9546 28.7916 46.5764C29.1575 46.2326 29.4408 45.8142 29.6426 45.3177C29.8472 44.8144 29.9481 44.3343 29.9481 43.875C29.9481 43.2246 29.9954 42.6477 30.091 42.1429L30.1152 42.0219L30.1156 41.9523C30.1156 41.5587 30.14 41.1018 30.1886 40.5812L30.2079 40.383L30.2737 39.7558C30.3314 39.1816 30.3622 38.7674 30.3663 38.5183L30.3668 36.8978C30.3668 35.7523 30.3298 34.5328 30.2553 33.2297C30.219 32.0846 30.055 30.8836 29.76 29.6117C29.5665 28.6077 29.1719 27.7016 28.5772 26.8925C28.0783 26.2272 27.4199 25.9032 26.5638 25.9032ZM26.7033 26.5493C27.1297 26.5493 27.5254 26.7197 27.8771 27.0428C28.2039 27.343 28.4689 27.7499 28.674 28.2548C29.0705 29.1948 29.348 30.2622 29.5073 31.4543L29.5397 31.7116C29.7154 33.112 29.8254 34.2959 29.8697 35.2725L29.8777 35.4651L29.9056 37.9966L29.904 38.3652C29.8993 38.9011 29.884 39.3597 29.858 39.7401L29.8489 39.8639C29.7739 40.9707 29.6802 41.9673 29.5684 42.8466C29.4721 43.7378 29.3071 44.5017 29.0696 45.1445C28.7554 45.9621 28.3256 46.4223 27.7359 46.4223C27.1461 46.4223 26.6442 46.0108 26.2039 45.2524C25.5955 44.1708 25.1471 42.3963 24.8447 39.9218C24.5956 38.2048 24.4641 36.7419 24.451 35.5316L24.4502 35.0904L24.4524 34.8437C24.4558 34.6084 24.4626 34.4076 24.4727 34.2445L24.478 34.1662L24.5058 33.2636C24.5223 32.4832 24.5749 31.6682 24.6632 30.8214L24.7032 30.4566C24.7996 29.5268 24.9931 28.6699 25.2775 27.9064C25.548 27.0412 26.0221 26.5493 26.7033 26.5493ZM26.7033 27.359C26.4542 27.359 26.2398 27.5814 26.0569 28.1646C25.7899 28.8828 25.6113 29.6741 25.5212 30.5432C25.4247 31.3819 25.3634 32.1853 25.3373 32.956L25.3282 33.2843L25.2995 34.2073L25.2889 34.3846C25.2796 34.5757 25.2742 34.8084 25.2729 35.082L25.2726 35.3323C25.2726 36.5376 25.4012 38.0301 25.6604 39.8162C25.9523 42.2044 26.3784 43.891 26.9209 44.8555C27.2274 45.3834 27.507 45.6126 27.7359 45.6126C27.8908 45.6126 28.0936 45.3954 28.2983 44.8629C28.5092 44.2918 28.6606 43.5909 28.7512 42.7535C28.8507 41.9703 28.9354 41.0971 29.0055 40.1313L29.0283 39.806C29.0583 39.4226 29.076 38.9447 29.0813 38.3755L29.083 38.001L29.0553 35.4845L29.0393 35.1297C28.9947 34.2777 28.8999 33.2565 28.7547 32.0656L28.7228 31.8079C28.5782 30.58 28.3082 29.4993 27.9122 28.5604C27.7473 28.1546 27.5471 27.8473 27.3157 27.6347C27.1092 27.445 26.9095 27.359 26.7033 27.359Z" fill="#5775FF"/>
<path d="M38.076 25.3674C36.701 25.3674 35.5478 25.7358 34.633 26.4759C33.7 27.2311 33.2271 28.2344 33.2271 29.4531L33.2307 29.6433C33.238 29.8326 33.2563 30.0187 33.2856 30.2017L33.3036 30.3008L33.319 30.2232C33.191 30.836 33.1242 31.645 33.1164 32.6546L33.1156 32.8592C33.1156 33.3826 33.1063 33.8905 33.0879 34.3826V36.4586C33.0898 37.3223 33.0989 37.9367 33.116 38.3161C33.1908 40.092 33.3418 41.5319 33.5702 42.6364C33.6838 43.2887 33.8575 43.9346 34.0888 44.5617C34.3253 45.1823 34.5926 45.6985 34.8943 46.1146C35.253 46.5719 35.6669 46.9284 36.143 47.1934C36.6569 47.4673 37.2081 47.6029 37.7971 47.6029L37.9903 47.5993C38.1969 47.5921 38.4438 47.5742 38.7313 47.5458C39.4781 47.444 40.1157 47.2113 40.6544 46.8443C41.291 46.3968 41.6132 45.7512 41.6132 44.9454V44.7777L41.4927 44.6592C41.1431 44.3151 40.7768 44.1284 40.3927 44.1284C40.0785 44.1284 39.6744 44.317 39.1038 44.6911C38.6897 44.9841 38.3735 45.1175 38.1599 45.1175C37.5746 45.1175 37.117 44.872 36.753 44.3517L36.6932 44.2624C36.256 43.6245 35.9604 42.8546 35.802 41.9383C35.5814 40.9041 35.4634 39.8858 35.445 38.8675L35.4031 37.8342C35.3776 37.1293 35.3639 36.5401 35.3618 36.0632L35.3615 35.2764C35.3615 35.162 35.3873 34.9578 35.4392 34.6726L35.493 34.3942C35.5723 34.0043 35.6125 33.6578 35.6125 33.3537L35.5847 32.408L35.5283 31.4352L35.5293 31.2459C35.5322 30.9471 35.5406 30.7335 35.5538 30.6293L35.5569 30.5793C35.5569 30.3395 35.5744 30.0712 35.6097 29.7748C35.6436 29.4928 35.6931 29.2659 35.7555 29.097C35.9199 28.6117 36.1336 28.2887 36.391 28.1057L36.4799 28.0532C36.7228 27.9184 37.0125 27.8254 37.3466 27.7784L37.4693 27.7632V27.7978L38.0518 27.7976L38.1007 27.8375C38.2155 27.9229 38.3588 27.9859 38.5261 28.0307C38.7889 28.0955 39.0264 28.1274 39.2484 28.1274C39.5565 28.1274 39.8295 28.0468 40.0533 27.8817C40.3058 27.6954 40.4409 27.4289 40.4409 27.1182C40.4409 26.5853 40.1577 26.1417 39.6366 25.8153C39.1615 25.5176 38.6381 25.3674 38.076 25.3674ZM38.076 26.1771C38.4816 26.1771 38.8516 26.2834 39.1949 26.4984C39.4923 26.6846 39.6182 26.8819 39.6182 27.1182C39.6182 27.1743 39.6048 27.2006 39.5598 27.2338C39.486 27.2883 39.3864 27.3177 39.2484 27.3177C39.0977 27.3177 38.9263 27.2947 38.734 27.2474L38.6674 27.2272C38.6234 27.2123 38.6071 27.2036 38.6112 27.2116L38.4974 26.9881L38.292 26.9879V26.9331H37.8806C37.1175 26.9331 36.4641 27.0991 35.9284 27.4365C35.5257 27.722 35.2313 28.1456 35.0222 28.708L34.9787 28.8307C34.8959 29.0543 34.8335 29.3402 34.7926 29.6802L34.7716 29.873C34.753 30.0625 34.7413 30.2422 34.7366 30.4124L34.7346 30.5526L34.7235 30.6819C34.7118 30.8604 34.7063 31.1175 34.7063 31.4583L34.7629 32.4429L34.7899 33.3654C34.7898 33.5706 34.7636 33.8218 34.7106 34.1098L34.6413 34.4651C34.5732 34.8284 34.5388 35.0953 34.5388 35.2764V35.9359C34.5388 36.6552 34.5668 37.6391 34.6227 38.8925C34.6418 39.9517 34.7657 41.0209 34.994 42.0895C35.1566 43.0318 35.461 43.8594 35.9068 44.5575L36.0045 44.7052C36.5178 45.5051 37.2516 45.9272 38.1599 45.9272C38.5788 45.9272 39.0433 45.7313 39.5722 45.3566L39.7351 45.2528C40.073 45.0439 40.3105 44.9381 40.3927 44.9381L40.4348 44.9408C40.521 44.9516 40.6205 44.9952 40.7329 45.0778L40.7831 45.1166L40.7812 45.1446C40.7375 45.593 40.5405 45.9294 40.1812 46.1819C39.7574 46.4706 39.2416 46.6589 38.6336 46.7419L38.3875 46.7641C38.1528 46.7833 37.9532 46.7932 37.7971 46.7932C37.344 46.7932 36.9276 46.6907 36.5413 46.4849C36.1685 46.2774 35.8378 45.9926 35.5546 45.6318C35.3071 45.2901 35.0719 44.8358 34.8607 44.2814C34.6476 43.7037 34.4864 43.1043 34.3787 42.4871C34.1799 41.5252 34.0412 40.2955 33.9621 38.7926L33.9379 38.2815C33.9225 37.9381 33.9136 37.3847 33.9111 36.6146L33.9103 34.3974C33.9251 34.0077 33.9341 33.5983 33.9371 33.1772L33.9383 32.8592C33.9383 31.8698 33.9937 31.0819 34.1024 30.4998L34.1416 30.3059L34.1253 30.2256C34.075 29.9767 34.0498 29.7193 34.0498 29.4531C34.0498 28.4745 34.4142 27.7014 35.1555 27.1013C35.9157 26.4863 36.8836 26.1771 38.076 26.1771Z" fill="#5775FF"/>
<path d="M44.4639 44.6781C44.9246 44.6781 45.3139 44.8632 45.5752 45.1929C45.8724 45.5096 46.0196 45.9196 46.0196 46.4015C46.0196 47.3009 45.3553 47.7679 44.2406 47.7679C43.8995 47.7679 43.5852 47.62 43.2938 47.3331C43.0378 47.0555 42.9082 46.7107 42.9082 46.3193C42.9082 45.8883 43.0584 45.506 43.3422 45.2039C43.642 44.86 44.0247 44.6781 44.4639 44.6781ZM44.4639 45.4878C44.2707 45.4878 44.1137 45.5624 43.9566 45.7422C43.8039 45.9049 43.7309 46.0908 43.7309 46.3193C43.7309 46.5135 43.7873 46.6634 43.889 46.7745C44.0217 46.9048 44.1352 46.9582 44.2406 46.9582C44.949 46.9582 45.1969 46.7839 45.1969 46.4015C45.1969 46.1432 45.1351 45.9451 44.998 45.7737L44.9495 45.7176C44.8233 45.5593 44.6728 45.4878 44.4639 45.4878ZM45.1336 25.2578C45.4283 25.2578 45.6913 25.3643 45.8995 25.569C46.1089 25.7755 46.215 26.0439 46.215 26.3494L46.2118 26.8897C46.1954 28.3213 46.1159 30.1417 45.9734 32.3548L45.8537 34.1933C45.7088 36.5122 45.6339 38.2385 45.6291 39.365L45.6281 39.8134C45.6241 40.6211 45.6054 41.2247 45.5725 41.6123C45.5534 42.0478 45.5068 42.359 45.4159 42.5717L45.3993 42.6064L45.383 42.6461C45.2804 42.8689 45.101 43.0202 44.8691 43.0602L44.8046 43.0684L44.7428 43.0708C44.3148 43.0708 44.0485 42.7258 43.8239 42.1114C43.6502 41.6174 43.5614 40.931 43.5509 40.0441L43.5506 39.7423C43.5543 39.3891 43.5727 38.8068 43.6065 37.9741C43.6387 37.3897 43.6569 36.7476 43.6609 36.0508L43.6618 35.7488L43.5499 26.7339C43.5499 26.3492 43.7015 26.0118 43.979 25.7529L44.0453 25.6946C44.3616 25.4077 44.7295 25.2578 45.1336 25.2578ZM45.1336 26.0675C44.9423 26.0675 44.7713 26.1372 44.5898 26.3014C44.4555 26.4132 44.3883 26.5323 44.3751 26.6745L44.3726 26.729L44.4845 35.7439C44.4845 36.5769 44.4657 37.3348 44.4282 38.0122L44.3973 38.8304C44.3822 39.2684 44.374 39.5932 44.3728 39.8081L44.3726 39.864C44.3726 40.7564 44.4516 41.4208 44.5996 41.8419C44.6199 41.8972 44.6399 41.9479 44.6596 41.9939L44.6889 42.0594L44.7017 42.0862L44.7078 42.0532C44.7208 41.9703 44.7322 41.8668 44.7411 41.7434L44.7516 41.5613L44.7636 41.3992C44.788 41.0236 44.8021 40.4909 44.8054 39.8062L44.8072 39.2426C44.8166 38.0979 44.8917 36.3988 45.0323 34.1469L45.1704 32.0202C45.3184 29.6663 45.3923 27.7768 45.3923 26.3494C45.3923 26.2526 45.368 26.1911 45.3176 26.1414C45.2646 26.0893 45.2109 26.0675 45.1336 26.0675Z" fill="#5775FF"/>
</svg>
