<svg width="40" height="40" viewBox="0 0 40 40" fill="none" xmlns="http://www.w3.org/2000/svg">
<circle cx="20" cy="20" r="20" fill="#5775FF"/>
<path d="M30 16.608V24.75C30.0001 25.5801 29.6824 26.3788 29.1123 26.9822C28.5422 27.5856 27.7628 27.948 26.934 27.995L26.75 28H13.25C12.4199 28.0001 11.6212 27.6824 11.0178 27.1123C10.4144 26.5422 10.052 25.7628 10.005 24.934L10 24.75V16.608L19.652 21.664C19.7594 21.7202 19.8788 21.7496 20 21.7496C20.1212 21.7496 20.2406 21.7202 20.348 21.664L30 16.608ZM13.25 12H26.75C27.5556 11.9999 28.3325 12.299 28.93 12.8393C29.5276 13.3795 29.9032 14.1225 29.984 14.924L20 20.154L10.016 14.924C10.0935 14.1543 10.443 13.4375 11.0017 12.9025C11.5605 12.3674 12.2917 12.0492 13.064 12.005L13.25 12H26.75H13.25Z" fill="white"/>
</svg>
