<svg width="38" height="31" viewBox="0 0 38 31" fill="none" xmlns="http://www.w3.org/2000/svg">
<path d="M6.50293 30.1118V28.1065C6.50293 27.3375 6.03491 26.8364 5.26672 26.8364C4.86325 26.8364 4.43154 26.9704 4.13056 27.4013C3.89655 27.0333 3.56571 26.8364 3.06138 26.8364C2.6805 26.82 2.31679 26.9958 2.09306 27.3045V26.901H1.45801V30.1093H2.09306V28.2736C2.09306 27.7087 2.42713 27.4384 2.89515 27.4384C3.36317 27.4384 3.63026 27.7394 3.63026 28.2736V30.1118H4.26532V28.2736C4.26532 27.7087 4.59939 27.4384 5.06741 27.4384C5.53542 27.4384 5.80252 27.7394 5.80252 28.2736V30.1118H6.50293ZM16.9301 26.9365H15.76V25.9682H15.1266V26.9365H14.4585V27.5013H15.1266V29.0087C15.1266 29.7438 15.3937 30.1787 16.1958 30.1787C16.4996 30.1724 16.7974 30.0921 17.0632 29.9447L16.8623 29.3799C16.682 29.4926 16.4729 29.5506 16.2603 29.5469C15.9263 29.5469 15.7592 29.346 15.7592 29.0119V27.4755H16.9293V26.9405L16.9301 26.9365ZM22.8788 26.8364C22.5269 26.8286 22.1968 27.0063 22.0097 27.3045V26.901H21.3747V30.1093H22.0097V28.3075C22.0097 27.7725 22.2768 27.4384 22.7117 27.4384C22.8585 27.4444 23.0041 27.4668 23.1459 27.5054L23.3468 26.9034C23.1936 26.8648 23.0367 26.8423 22.8788 26.8364ZM13.8888 27.1705C13.5547 26.9365 13.0867 26.8364 12.5856 26.8364C11.7835 26.8364 11.2824 27.2044 11.2824 27.8394C11.2824 28.3744 11.6503 28.6746 12.3516 28.7755L12.6856 28.8086C13.0536 28.8755 13.2876 29.0095 13.2876 29.1765C13.2876 29.4105 13.0205 29.58 12.5186 29.58C12.1354 29.5879 11.76 29.4706 11.4494 29.2459L11.1153 29.747C11.5834 30.0811 12.1514 30.1505 12.4871 30.1505C13.4232 30.1505 13.9243 29.7164 13.9243 29.1144C13.9243 28.5495 13.5208 28.2792 12.8212 28.1784L12.4871 28.1453C12.1861 28.1122 11.9223 28.0113 11.9223 27.8112C11.9223 27.5772 12.1894 27.4077 12.5573 27.4077C12.9608 27.4077 13.3594 27.5748 13.5603 27.6748L13.8888 27.1705ZM23.5808 28.5076C23.5808 29.4759 24.2159 30.1787 25.252 30.1787C25.72 30.1787 26.054 30.0787 26.3881 29.8108L26.054 29.3097C25.8175 29.5012 25.5232 29.6073 25.2189 29.6107C24.654 29.6107 24.2159 29.1765 24.2159 28.5415C24.2159 27.9064 24.6484 27.4755 25.2189 27.4755C25.5232 27.4789 25.8175 27.585 26.054 27.7765L26.3881 27.2754C26.054 27.0083 25.72 26.9074 25.252 26.9074C24.2489 26.8405 23.5808 27.5425 23.5808 28.5116V28.5076ZM19.1023 26.8364C18.1663 26.8364 17.5312 27.5046 17.5312 28.5076C17.5312 29.5106 18.1994 30.1787 19.1685 30.1787C19.64 30.1887 20.1004 30.0353 20.4717 29.7446L20.1376 29.2766C19.8691 29.4847 19.5412 29.6017 19.2016 29.6107C18.7675 29.6107 18.2994 29.3436 18.2333 28.7755H20.6065V28.5084C20.6065 27.5054 20.0045 26.8372 19.1023 26.8372V26.8364ZM19.0693 27.4384C19.5373 27.4384 19.8713 27.7394 19.9044 28.2405H18.1671C18.2672 27.7725 18.5706 27.4384 19.0693 27.4384ZM10.4133 28.5076V26.9034H9.77826V27.3069C9.54425 27.0059 9.21341 26.8389 8.74216 26.8389C7.84002 26.8389 7.17107 27.5409 7.17107 28.51C7.17107 29.4791 7.83921 30.1812 8.74216 30.1812C9.21018 30.1812 9.54425 30.0141 9.77826 29.7131V30.1166H10.4133V28.5076ZM7.84002 28.5076C7.84002 27.9056 8.20798 27.4384 8.84303 27.4384C9.445 27.4384 9.81135 27.9064 9.81135 28.5076C9.81135 29.1426 9.40788 29.5768 8.84303 29.5768C8.20798 29.6099 7.84002 29.1087 7.84002 28.5076ZM32.5385 26.8364C32.1867 26.8286 31.8566 27.0063 31.6695 27.3045V26.901H31.0344V30.1093H31.6687V28.3075C31.6687 27.7725 31.9358 27.4384 32.3707 27.4384C32.5175 27.4444 32.6631 27.4668 32.8048 27.5054L33.0057 26.9034C32.8525 26.8648 32.6956 26.8423 32.5377 26.8364H32.5385ZM30.0653 28.5076V26.9034H29.4302V27.3069C29.1962 27.0059 28.8654 26.8389 28.3941 26.8389C27.492 26.8389 26.823 27.5409 26.823 28.51C26.823 29.4791 27.4912 30.1812 28.3941 30.1812C28.8622 30.1812 29.1962 30.0141 29.4302 29.7131V30.1166H30.0653V28.5076ZM27.492 28.5076C27.492 27.9056 27.8599 27.4384 28.495 27.4384C29.097 27.4384 29.4633 27.9064 29.4633 28.5076C29.4633 29.1426 29.0599 29.5768 28.495 29.5768C27.8599 29.6099 27.492 29.1087 27.492 28.5076ZM36.5159 28.5076V25.6333H35.8808V27.3045C35.6468 27.0035 35.316 26.8364 34.8447 26.8364C33.9426 26.8364 33.2736 27.5385 33.2736 28.5076C33.2736 29.4767 33.9418 30.1787 34.8447 30.1787C35.3128 30.1787 35.6468 30.0117 35.8808 29.7107V30.1142H36.5159V28.5076ZM33.9426 28.5076C33.9426 27.9056 34.3105 27.4384 34.9456 27.4384C35.5476 27.4384 35.9139 27.9064 35.9139 28.5076C35.9139 29.1426 35.5105 29.5768 34.9456 29.5768C34.3097 29.6107 33.9418 29.1096 33.9418 28.5076H33.9426Z" fill="#BFBFD5"/>
<circle cx="11.9609" cy="11.9609" r="11.3769" fill="#BFBFD5"/>
<circle cx="25.3789" cy="11.9609" r="11.3769" fill="#BFBFD5"/>
<path d="M34.4785 3.52204C30.3269 -0.632032 23.7807 -1.17635 19 2.23499C15.3335 -0.377336 10.5148 -0.722505 6.51345 1.34055C2.51207 3.40361 -0.00152938 7.5292 6.98149e-07 12.0311C-0.00152938 16.533 2.51207 20.6586 6.51345 22.7217C10.5148 24.7847 15.3335 24.4396 19 21.8272C22.6665 24.4396 27.4851 24.7847 31.4865 22.7217C35.4879 20.6586 38.0015 16.533 38 12.0311C38.0095 8.83831 36.7415 5.77435 34.4785 3.52204ZM19 19.9229C16.7414 17.9224 15.4484 15.0499 15.4484 12.0327C15.4484 9.01557 16.7414 6.14307 19 4.14257C21.2571 6.14389 22.5491 9.01609 22.5491 12.0327C22.5491 15.0494 21.2571 17.9216 19 19.9229ZM12.0313 22.5535C6.22177 22.5535 1.51219 17.8439 1.51219 12.0343C1.51219 6.22478 6.22177 1.51521 12.0313 1.51521C14.0691 1.50923 16.0634 2.10366 17.7654 3.22428C15.3234 5.50367 13.937 8.69429 13.937 12.0347C13.937 15.3752 15.3234 18.5658 17.7654 20.8452C16.0633 21.9656 14.069 22.5597 12.0313 22.5535ZM25.9686 22.5535C23.9329 22.5595 21.9403 21.9662 20.2394 20.8476C22.6802 18.5671 24.0657 15.3763 24.0657 12.036C24.0657 8.69558 22.6802 5.50483 20.2394 3.22428C21.9414 2.10366 23.9357 1.50923 25.9735 1.51521C31.783 1.51521 36.4926 6.22479 36.4926 12.0343C36.4926 17.8439 31.783 22.5535 25.9735 22.5535H25.9686Z" fill="white"/>
</svg>
