<svg width="62" height="17" viewBox="0 0 62 17" fill="none" xmlns="http://www.w3.org/2000/svg">
<path fill-rule="evenodd" clip-rule="evenodd" d="M5.73327 0.00288592C6.28716 -0.000427681 7.9333 -0.148688 8.63058 2.20461C9.10027 3.78982 9.84846 6.38646 10.8751 9.99454H11.2933C12.3943 6.19065 13.1507 3.59401 13.5623 2.20461C14.2669 -0.173202 16.0282 0.00293252 16.7328 0.00293252L22.1684 0.0029393V16.9118H16.6282V6.94712H16.2567L13.1684 16.9118H9.00007L5.91169 6.93974H5.54018V16.9118H0V0.0029393L5.73327 0.00288592ZM30.124 0.0029393V9.97502H30.566L34.3227 1.77505C35.052 0.143231 36.6062 0.0029393 36.6062 0.0029393H41.9675V16.9118H36.3116V6.93974H35.8696L32.1865 15.1397C31.4573 16.7641 29.8294 16.9118 29.8294 16.9118H24.4681V0.0029393H30.124ZM61.5167 8.03815C60.7278 10.2738 58.2502 11.8749 55.5072 11.8749H49.5759V16.9118H44.1975V8.03815H61.5167Z" fill="#BFBFD5"/>
<path fill-rule="evenodd" clip-rule="evenodd" d="M55.7672 0.00341797H43.916C44.1981 3.76791 47.4399 6.99056 50.796 6.99056H61.891C62.5313 3.86182 60.3272 0.00341797 55.7672 0.00341797Z" fill="#BFBFD5"/>
</svg>
