<svg width="28" height="34" viewBox="0 0 28 34" fill="none" xmlns="http://www.w3.org/2000/svg">
<path d="M7.01496 21.8745C7.01496 21.3099 6.62315 20.9731 5.93186 20.9731C5.64957 20.9731 5.45839 21.001 5.3584 21.0277V22.8393C5.4768 22.8659 5.62235 22.8748 5.82298 22.8748C6.55983 22.8748 7.01496 22.5026 7.01496 21.8745Z" fill="#5775FF"/>
<path d="M11.2945 20.9922C10.9849 20.9922 10.7848 21.0189 10.6665 21.0466V25.0589C10.7849 25.0867 10.9761 25.0867 11.1489 25.0867C12.4048 25.0956 13.2239 24.4043 13.2239 22.9394C13.2328 21.6656 12.4864 20.9922 11.2945 20.9922Z" fill="#5775FF"/>
<path d="M19.2458 0H5.58998C3.595 0 1.9713 1.62483 1.9713 3.61868V16.9999H1.61786C0.812673 16.9999 0.159668 17.6523 0.159668 18.4582V27.3015C0.159668 28.1074 0.812603 28.7597 1.61786 28.7597H1.9713V30.3812C1.9713 32.3773 3.595 33.9999 5.58998 33.9999H24.2227C26.2164 33.9999 27.8403 32.3772 27.8403 30.3812V8.56445L19.2458 0ZM3.98511 20.0541C4.41245 19.9819 5.01313 19.9275 5.85943 19.9275C6.71468 19.9275 7.32425 20.0907 7.73382 20.4186C8.12506 20.7276 8.38909 21.2377 8.38909 21.8379C8.38909 22.4381 8.18902 22.9483 7.82501 23.2939C7.35154 23.7396 6.65136 23.9396 5.83228 23.9396C5.64999 23.9396 5.4866 23.9306 5.35882 23.9129V26.1058H3.98511V20.0541ZM24.2227 31.7838H5.58998C4.81751 31.7838 4.18848 31.1548 4.18848 30.3812V28.7597H21.558C22.3633 28.7597 23.0163 28.1074 23.0163 27.3015V18.4582C23.0163 17.6523 22.3633 16.9999 21.558 16.9999H4.18848V3.61868C4.18848 2.84734 4.81758 2.21831 5.58998 2.21831L18.4167 2.20492V6.94612C18.4167 8.33097 19.5403 9.45567 20.9262 9.45567L25.5707 9.44234L25.623 30.3812C25.623 31.1548 24.9951 31.7838 24.2227 31.7838ZM9.27487 26.078V20.0541C9.78437 19.973 10.4485 19.9275 11.1493 19.9275C12.314 19.9275 13.0692 20.1364 13.661 20.582C14.2979 21.0555 14.6979 21.8102 14.6979 22.8937C14.6979 24.0673 14.2706 24.8776 13.6787 25.3776C13.033 25.9144 12.05 26.169 10.8491 26.169C10.13 26.169 9.62049 26.1235 9.27487 26.078ZM19.2058 22.5115V23.6395H17.0035V26.1058H15.6115V19.973H19.3603V21.1099H17.0035V22.5115H19.2058Z" fill="#5775FF"/>
</svg>
