<svg width="160" height="45" viewBox="0 0 160 45" fill="none" xmlns="http://www.w3.org/2000/svg">
<rect x="0.75" y="0.75" width="158.5" height="43.5" rx="9.25" fill="white" stroke="#5775FF" stroke-width="1.5"/>
<path fill-rule="evenodd" clip-rule="evenodd" d="M80.4062 24.4752C77.6247 24.4752 75.37 26.4867 75.37 29.2614C75.37 32.0107 77.6394 34.0475 80.4062 34.0475C83.1878 34.0475 85.4425 32.022 85.4425 29.2614C85.4425 26.4867 83.1878 24.4752 80.4062 24.4752ZM80.4062 32.151C78.8845 32.151 77.5746 30.9503 77.5746 29.2501C77.5746 27.5248 78.8874 26.3493 80.4062 26.3493C81.928 26.3493 83.2378 27.5248 83.2378 29.2501C83.2408 30.9615 81.928 32.151 80.4062 32.151ZM69.4183 24.4752C66.6368 24.4752 64.3821 26.4867 64.3821 29.2614C64.3821 32.0107 66.6515 34.0475 69.4183 34.0475C72.1999 34.0475 74.4546 32.022 74.4546 29.2614C74.4546 26.4867 72.1969 24.4752 69.4183 24.4752ZM69.4183 32.151C67.8966 32.151 66.5867 30.9503 66.5867 29.2501C66.5867 27.5248 67.8995 26.3493 69.4183 26.3493C70.9401 26.3493 72.2499 27.5248 72.2499 29.2501C72.2499 30.9615 70.9401 32.151 69.4183 32.151ZM56.3435 25.9369V27.9624H61.4445C61.2885 29.0987 60.8941 29.9375 60.2907 30.5126C59.543 31.2252 58.3892 31.9995 56.3553 31.9995C53.2205 31.9995 50.7686 29.5868 50.7686 26.599C50.7686 23.6111 53.2205 21.1984 56.3553 21.1984C58.0478 21.1984 59.2811 21.8352 60.1965 22.6488L61.7035 21.2124C60.432 20.051 58.7395 19.1616 56.3671 19.1616C52.0667 19.1616 48.458 22.5001 48.458 26.5877C48.458 30.6866 52.0637 34.0139 56.3671 34.0139C58.6894 34.0139 60.432 33.29 61.8095 31.9266C63.2135 30.5884 63.658 28.7003 63.658 27.1769C63.658 26.7028 63.6197 26.2763 63.5403 25.9144H56.3406C56.3435 25.9116 56.3435 25.9369 56.3435 25.9369ZM109.823 27.5136C109.402 26.4391 108.131 24.464 105.523 24.464C102.938 24.464 100.79 26.4026 100.79 29.2501C100.79 31.9378 102.915 34.0363 105.773 34.0363C108.069 34.0363 109.405 32.6981 109.956 31.9126L108.251 30.824C107.686 31.6236 106.9 32.1482 105.785 32.1482C104.657 32.1482 103.868 31.6601 103.345 30.6978L110.059 28.0466C110.059 28.0494 109.823 27.5136 109.823 27.5136ZM102.977 29.1127C102.924 27.2639 104.484 26.324 105.599 26.324C106.479 26.324 107.212 26.7364 107.462 27.3368L102.977 29.1127ZM97.5224 33.7501H99.727V19.6891H97.5224V33.7501ZM93.9019 25.5385H93.8225C93.325 24.9746 92.3802 24.464 91.1734 24.464C88.6685 24.464 86.3608 26.5653 86.3608 29.2642C86.3608 31.9518 88.6567 34.0279 91.1734 34.0279C92.3655 34.0279 93.325 33.5145 93.8225 32.9394H93.9019V33.6267C93.9019 35.4531 92.8776 36.4378 91.2263 36.4378C89.8753 36.4378 89.0364 35.512 88.695 34.7377L86.7788 35.5008C87.3292 36.7632 88.798 38.3259 91.2234 38.3259C93.8078 38.3259 95.9977 36.8755 95.9977 33.3377V24.7501H93.9137V25.5385C93.9167 25.5385 93.9019 25.5385 93.9019 25.5385ZM91.3706 32.151C89.8488 32.151 88.5772 30.939 88.5772 29.2642C88.5772 27.5753 89.8488 26.3521 91.3706 26.3521C92.8776 26.3521 94.0462 27.5893 94.0462 29.2642C94.0609 30.939 92.8806 32.151 91.3706 32.151ZM120.146 19.6891H114.874V33.7501H117.079V28.4253H120.149C122.589 28.4253 124.988 26.7392 124.988 24.0628C124.988 21.3864 122.598 19.6891 120.146 19.6891ZM120.21 26.4615H117.076V21.6361H120.21C121.862 21.6361 122.795 22.935 122.795 24.0488C122.795 25.1513 121.85 26.4615 120.21 26.4615ZM133.824 24.45C132.223 24.45 130.571 25.1261 129.889 26.599L131.843 27.3733C132.264 26.599 133.035 26.3352 133.85 26.3352C134.992 26.3352 136.146 26.9861 136.173 28.1476V28.2963C135.778 28.0831 134.913 27.7576 133.877 27.7576C131.766 27.7576 129.627 28.8574 129.627 30.9194C129.627 32.8075 131.357 34.0195 133.285 34.0195C134.766 34.0195 135.581 33.3826 136.09 32.6448H136.17V33.7333H138.295V28.3468C138.295 25.8387 136.341 24.45 133.824 24.45ZM133.547 32.151C132.826 32.151 131.817 31.8144 131.817 30.9503C131.817 29.8617 133.076 29.4493 134.151 29.4493C135.122 29.4493 135.581 29.6485 136.158 29.9235C135.999 31.1859 134.881 32.1398 133.547 32.151ZM146.048 24.7501L143.517 30.8493H143.437L140.815 24.7501H138.442L142.378 33.276L140.135 38.0145H142.431L148.485 24.7501H146.048ZM126.203 33.7501H128.408V19.6891H126.203V33.7501Z" fill="#373D47"/>
<path fill-rule="evenodd" clip-rule="evenodd" d="M12.3033 8.47528C11.9619 8.82597 11.7646 9.36182 11.7646 10.0632V34.9394C11.7646 35.6408 11.9619 36.1766 12.3151 36.5133L12.4063 36.589L27.0294 22.6514V22.34L12.3945 8.39954L12.3033 8.47528Z" fill="url(#paint0_linear)"/>
<path fill-rule="evenodd" clip-rule="evenodd" d="M31.8939 27.3113L27.0166 22.6626V22.3372L31.8939 17.6885L31.9999 17.7502L37.769 20.8755C39.4203 21.762 39.4203 23.2265 37.769 24.1243L31.9999 27.2496L31.8939 27.3113Z" fill="url(#paint1_linear)"/>
<path fill-rule="evenodd" clip-rule="evenodd" d="M32.0013 27.2496L27.018 22.4999L12.3037 36.5245C12.8424 37.0744 13.746 37.1361 14.7556 36.6002L32.0013 27.2496Z" fill="url(#paint2_linear)"/>
<path fill-rule="evenodd" clip-rule="evenodd" d="M32.0013 17.7504L14.7556 8.41371C13.746 7.86384 12.8394 7.93959 12.3037 8.48946L27.018 22.5001L32.0013 17.7504Z" fill="url(#paint3_linear)"/>
<path opacity="0.2" fill-rule="evenodd" clip-rule="evenodd" d="M31.8953 27.1486L14.7673 36.4235C13.8107 36.9481 12.9571 36.9117 12.4067 36.4347L12.3154 36.5217L12.4067 36.5975C12.9571 37.0716 13.8107 37.1109 14.7673 36.5862L32.013 27.2496L31.8953 27.1486Z" fill="#373D47"/>
<path opacity="0.12" fill-rule="evenodd" clip-rule="evenodd" d="M37.7697 23.9615L31.8799 27.1486L31.9858 27.2496L37.755 24.1243C38.5821 23.6754 38.9883 23.0862 38.9883 22.4999C38.9383 23.0385 38.5174 23.5491 37.7697 23.9615Z" fill="#373D47"/>
<path opacity="0.25" fill-rule="evenodd" clip-rule="evenodd" d="M14.7552 8.57645L37.77 21.0384C38.5177 21.4396 38.9386 21.9642 39.0033 22.5001C39.0033 21.9137 38.5971 21.3246 37.77 20.8757L14.7552 8.41373C13.1039 7.51317 11.7646 8.26504 11.7646 10.0634V10.2261C11.7646 8.42495 13.1039 7.68711 14.7552 8.57645Z" fill="white"/>
<path d="M54.7179 16.1928H53.8791V14.625H49.2898V16.1972H48.4466L48.4422 13.9355H48.9648C49.2401 13.6252 49.4582 13.2094 49.6192 12.6883C49.7832 12.1642 49.8856 11.5904 49.9266 10.9668L50.0671 8.23078H53.8923V13.9355H54.7267L54.7179 16.1928ZM49.9266 13.9355H53.0447V8.92466H50.8796L50.7874 10.8043C50.7493 11.5391 50.6512 12.1657 50.4931 12.6839C50.338 13.2021 50.1491 13.6193 49.9266 13.9355ZM60.5412 11.6343C60.5412 12.2608 60.4358 12.8083 60.225 13.2768C60.0142 13.7423 59.7156 14.098 59.3291 14.3439C58.9426 14.5899 58.4918 14.7128 57.9765 14.7128C57.4729 14.7128 57.0264 14.5899 56.637 14.3439C56.2476 14.0951 55.9446 13.7423 55.728 13.2856C55.5142 12.8259 55.4044 12.2945 55.3986 11.6914V11.2303C55.3986 10.6154 55.5055 10.0723 55.7192 9.60097C55.9329 9.1296 56.2345 8.76949 56.6239 8.52063C57.0162 8.26884 57.4641 8.14295 57.9677 8.14295C58.4801 8.14295 58.9309 8.26738 59.3203 8.51623C59.7126 8.76217 60.0142 9.12082 60.225 9.59219C60.4358 10.0606 60.5412 10.6067 60.5412 11.2303V11.6343ZM59.7024 11.2215C59.7024 10.4632 59.5501 9.88203 59.2457 9.478C58.9412 9.07104 58.5152 8.86757 57.9677 8.86757C57.4348 8.86757 57.0147 9.07104 56.7073 9.478C56.4028 9.88203 56.2462 10.4442 56.2374 11.1644V11.6343C56.2374 12.3692 56.3911 12.9474 56.6985 13.369C57.0089 13.7877 57.4348 13.997 57.9765 13.997C58.521 13.997 58.9426 13.7994 59.2413 13.4041C59.5399 13.006 59.6936 12.4365 59.7024 11.6958V11.2215ZM66.5094 12.5961C66.4304 13.2724 66.1801 13.795 65.7585 14.1639C65.3398 14.5298 64.7821 14.7128 64.0852 14.7128C63.3299 14.7128 62.7238 14.442 62.2671 13.9004C61.8133 13.3587 61.5864 12.6341 61.5864 11.7265V11.1117C61.5864 10.5174 61.6918 9.99475 61.9026 9.54388C62.1163 9.093 62.4179 8.74753 62.8073 8.50745C63.1967 8.26445 63.6475 8.14295 64.1599 8.14295C64.8391 8.14295 65.3837 8.33325 65.7936 8.71386C66.2035 9.09154 66.4421 9.61561 66.5094 10.2861H65.6618C65.5886 9.77663 65.4291 9.40774 65.1832 9.17937C64.9401 8.95101 64.5991 8.83682 64.1599 8.83682C63.6212 8.83682 63.1981 9.03591 62.8907 9.43409C62.5862 9.83226 62.434 10.3988 62.434 11.1336V11.7529C62.434 12.4467 62.5789 12.9986 62.8688 13.4085C63.1586 13.8184 63.5641 14.0233 64.0852 14.0233C64.5537 14.0233 64.9123 13.9179 65.1612 13.7071C65.413 13.4934 65.5799 13.1231 65.6618 12.5961H66.5094ZM71.9507 8.92466H69.8954V14.625H69.0566V8.92466H67.0057V8.23078H71.9507V8.92466ZM75.0951 11.9417L76.5663 8.23078H77.5456L75.2839 13.5578C75.1317 13.8975 74.9897 14.139 74.8579 14.2825C74.7262 14.423 74.571 14.5313 74.3924 14.6074C74.2167 14.6806 73.9957 14.7172 73.7293 14.7172C73.498 14.7172 73.3501 14.704 73.2857 14.6777L73.3121 14.0102L73.7117 14.0277C74.0191 14.0277 74.2475 13.8799 74.3968 13.5842L74.5066 13.3558L74.6735 12.965L72.4952 8.23078H73.4394L75.0951 11.9417ZM83.4392 14.625H82.5916V8.92466H79.4384V14.625H78.5952V8.23078H83.4392V14.625ZM89.8905 14.625H89.0429V11.6694H85.8195V14.625H84.9763V8.23078H85.8195V10.9799H89.0429V8.23078H89.8905V14.625ZM96.3067 11.6343C96.3067 12.2608 96.2013 12.8083 95.9905 13.2768C95.7797 13.7423 95.481 14.098 95.0946 14.3439C94.7081 14.5899 94.2572 14.7128 93.742 14.7128C93.2384 14.7128 92.7919 14.5899 92.4025 14.3439C92.0131 14.0951 91.7101 13.7423 91.4934 13.2856C91.2797 12.8259 91.1699 12.2945 91.1641 11.6914V11.2303C91.1641 10.6154 91.2709 10.0723 91.4847 9.60097C91.6984 9.1296 91.9999 8.76949 92.3893 8.52063C92.7817 8.26884 93.2296 8.14295 93.7332 8.14295C94.2455 8.14295 94.6964 8.26738 95.0858 8.51623C95.4781 8.76217 95.7797 9.12082 95.9905 9.59219C96.2013 10.0606 96.3067 10.6067 96.3067 11.2303V11.6343ZM95.4679 11.2215C95.4679 10.4632 95.3156 9.88203 95.0111 9.478C94.7067 9.07104 94.2807 8.86757 93.7332 8.86757C93.2003 8.86757 92.7802 9.07104 92.4728 9.478C92.1683 9.88203 92.0117 10.4442 92.0029 11.1644V11.6343C92.0029 12.3692 92.1566 12.9474 92.464 13.369C92.7743 13.7877 93.2003 13.997 93.742 13.997C94.2865 13.997 94.7081 13.7994 95.0068 13.4041C95.3054 13.006 95.4591 12.4365 95.4679 11.6958V11.2215ZM99.8024 14.625V8.23078H101.893C102.587 8.23078 103.108 8.37424 103.456 8.66116C103.808 8.94808 103.983 9.3726 103.983 9.93473C103.983 10.2334 103.898 10.4983 103.729 10.7296C103.559 10.958 103.327 11.1351 103.035 11.261C103.38 11.3576 103.652 11.5421 103.852 11.8144C104.054 12.0837 104.155 12.4058 104.155 12.7805C104.155 13.3544 103.969 13.8052 103.597 14.1331C103.225 14.461 102.699 14.625 102.02 14.625H99.8024ZM100.646 11.6343V13.9355H102.038C102.43 13.9355 102.739 13.8345 102.964 13.6325C103.193 13.4275 103.307 13.1465 103.307 12.7893C103.307 12.0193 102.888 11.6343 102.051 11.6343H100.646ZM100.646 10.958H101.919C102.288 10.958 102.582 10.8658 102.802 10.6813C103.024 10.4969 103.136 10.2465 103.136 9.93034C103.136 9.57901 103.033 9.3243 102.828 9.1662C102.623 9.00517 102.312 8.92466 101.893 8.92466H100.646V10.958Z" fill="#373D47"/>
<defs>
<linearGradient id="paint0_linear" x1="25.7177" y1="9.7948" x2="2.44954" y2="16.2995" gradientUnits="userSpaceOnUse">
<stop stop-color="#00A0FF"/>
<stop offset="0.00657" stop-color="#00A1FF"/>
<stop offset="0.2601" stop-color="#00BEFF"/>
<stop offset="0.5122" stop-color="#00D2FF"/>
<stop offset="0.7604" stop-color="#00DFFF"/>
<stop offset="1" stop-color="#00E3FF"/>
</linearGradient>
<linearGradient id="paint1_linear" x1="39.9224" y1="22.4999" x2="11.3623" y2="22.4999" gradientUnits="userSpaceOnUse">
<stop stop-color="#FFE000"/>
<stop offset="0.4087" stop-color="#FFBD00"/>
<stop offset="0.7754" stop-color="#FFA500"/>
<stop offset="1" stop-color="#FF9C00"/>
</linearGradient>
<linearGradient id="paint2_linear" x1="29.2916" y1="25.0844" x2="11.7907" y2="55.9884" gradientUnits="userSpaceOnUse">
<stop stop-color="#FF3A44"/>
<stop offset="1" stop-color="#C31162"/>
</linearGradient>
<linearGradient id="paint3_linear" x1="8.59849" y1="0.201201" x2="16.406" y2="14.0029" gradientUnits="userSpaceOnUse">
<stop stop-color="#32A071"/>
<stop offset="0.0685" stop-color="#2DA771"/>
<stop offset="0.4762" stop-color="#15CF74"/>
<stop offset="0.8009" stop-color="#06E775"/>
<stop offset="1" stop-color="#00F076"/>
</linearGradient>
</defs>
</svg>
