<svg width="160" height="45" viewBox="0 0 160 45" fill="none" xmlns="http://www.w3.org/2000/svg">
<rect x="0.75" y="0.75" width="158.5" height="43.5" rx="9.25" fill="white" stroke="#5775FF" stroke-width="1.5"/>
<path d="M38.0723 22.1817C38.0844 21.2433 38.3331 20.3232 38.7953 19.5071C39.2575 18.6909 39.9182 18.0052 40.7159 17.5137C40.2091 16.7884 39.5406 16.1915 38.7634 15.7704C37.9862 15.3493 37.1217 15.1156 36.2386 15.0879C34.3548 14.8897 32.5286 16.2176 31.5687 16.2176C30.5901 16.2176 29.1122 15.1076 27.5206 15.1404C26.4912 15.1737 25.4879 15.4737 24.6086 16.0112C23.7292 16.5487 23.0038 17.3053 22.5029 18.2072C20.3333 21.9717 21.9516 27.5043 24.0299 30.5472C25.0697 32.0372 26.2849 33.7016 27.875 33.6426C29.431 33.5779 30.0122 32.6482 31.8904 32.6482C33.7512 32.6482 34.2964 33.6426 35.9188 33.6051C37.5885 33.5779 38.6404 32.1084 39.6438 30.6043C40.3908 29.5426 40.9657 28.3692 41.3471 27.1275C40.3771 26.7163 39.5493 26.0281 38.9669 25.1486C38.3846 24.2691 38.0734 23.2372 38.0723 22.1817Z" fill="#373D47"/>
<path d="M35.0072 13.0868C35.9176 11.9916 36.3661 10.5838 36.2575 9.16248C34.8667 9.30888 33.5819 9.97507 32.6592 11.0283C32.2081 11.5428 31.8626 12.1414 31.6424 12.7899C31.4223 13.4383 31.3318 14.1239 31.3762 14.8074C32.0719 14.8146 32.7601 14.6634 33.3891 14.3654C34.018 14.0674 34.5713 13.6302 35.0072 13.0868Z" fill="#373D47"/>
<path d="M57.7404 29.8709H52.4305L51.1553 33.6444H48.9062L53.9357 19.6833H56.2725L61.3019 33.6444H59.0145L57.7404 29.8709ZM52.9804 28.1296H57.1894L55.1146 22.0055H55.0565L52.9804 28.1296Z" fill="#373D47"/>
<path d="M72.1638 28.5556C72.1638 31.7187 70.4745 33.7509 67.9253 33.7509C67.2795 33.7847 66.6373 33.6357 66.0721 33.3207C65.507 33.0058 65.0417 32.5377 64.7297 31.9701H64.6814V37.0117H62.5967V23.4657H64.6146V25.1587H64.653C64.9794 24.5938 65.4525 24.1281 66.0219 23.8112C66.5914 23.4944 67.2359 23.3381 67.8869 23.3592C70.4646 23.3592 72.1638 25.4013 72.1638 28.5556ZM70.021 28.5556C70.021 26.4948 68.9583 25.14 67.337 25.14C65.7441 25.14 64.6727 26.5234 64.6727 28.5556C64.6727 30.6065 65.7441 31.98 67.337 31.98C68.9583 31.98 70.021 30.635 70.021 28.5556Z" fill="#373D47"/>
<path d="M83.3425 28.5556C83.3425 31.7187 81.6532 33.7509 79.104 33.7509C78.4582 33.7847 77.816 33.6357 77.2508 33.3207C76.6857 33.0058 76.2204 32.5377 75.9084 31.9701H75.8601V37.0117H73.7754V23.4657H75.7933V25.1586H75.8317C76.158 24.5937 76.6311 24.1281 77.2006 23.8112C77.7701 23.4944 78.4146 23.3381 79.0656 23.3592C81.6434 23.3592 83.3425 25.4013 83.3425 28.5556ZM81.1997 28.5556C81.1997 26.4948 80.137 25.14 78.5157 25.14C76.9228 25.14 75.8514 26.5233 75.8514 28.5556C75.8514 30.6065 76.9228 31.98 78.5157 31.98C80.137 31.98 81.1997 30.635 81.1997 28.5556H81.1997Z" fill="#373D47"/>
<path d="M90.7308 29.7545C90.8852 31.139 92.2272 32.048 94.0611 32.048C95.8183 32.048 97.0825 31.1389 97.0825 29.8906C97.0825 28.8069 96.3201 28.1581 94.5147 27.7134L92.7093 27.2776C90.1513 26.6583 88.9637 25.4594 88.9637 23.5139C88.9637 21.1051 91.0583 19.4506 94.0326 19.4506C96.9762 19.4506 98.9942 21.1051 99.0621 23.5139H96.9576C96.8316 22.1207 95.6824 21.2797 94.003 21.2797C92.3236 21.2797 91.1744 22.1306 91.1744 23.369C91.1744 24.356 91.9084 24.9368 93.704 25.3814L95.2388 25.7591C98.0969 26.4365 99.2845 27.5872 99.2845 29.6292C99.2845 32.2412 97.2085 33.8771 93.9066 33.8771C90.8173 33.8771 88.7314 32.2796 88.5967 29.7544L90.7308 29.7545Z" fill="#373D47"/>
<path d="M103.784 21.0565V23.4653H105.716V25.1199H103.784V30.7313C103.784 31.603 104.171 32.0093 105.02 32.0093C105.249 32.0053 105.478 31.9891 105.706 31.9609V33.6056C105.324 33.6771 104.936 33.7094 104.548 33.7022C102.492 33.7022 101.69 32.9282 101.69 30.9541V25.1199H100.213V23.4653H101.69V21.0565H103.784Z" fill="#373D47"/>
<path d="M106.833 28.5553C106.833 25.3527 108.715 23.3402 111.65 23.3402C114.595 23.3402 116.468 25.3526 116.468 28.5553C116.468 31.7667 114.605 33.7703 111.65 33.7703C108.696 33.7703 106.833 31.7667 106.833 28.5553ZM114.344 28.5553C114.344 26.3584 113.339 25.0617 111.65 25.0617C109.961 25.0617 108.957 26.3682 108.957 28.5553C108.957 30.761 109.961 32.0477 111.65 32.0477C113.339 32.0477 114.344 30.761 114.344 28.5553H114.344Z" fill="#373D47"/>
<path d="M118.187 23.4656H120.175V25.1981H120.223C120.358 24.657 120.674 24.1788 121.119 23.8439C121.564 23.509 122.11 23.3378 122.666 23.3591C122.906 23.3582 123.146 23.3844 123.38 23.437V25.3913C123.077 25.2984 122.761 25.2558 122.444 25.265C122.141 25.2527 121.839 25.3063 121.559 25.4219C121.278 25.5376 121.026 25.7127 120.82 25.9352C120.614 26.1576 120.458 26.4222 120.363 26.7108C120.268 26.9994 120.237 27.3051 120.271 27.6069V33.6443H118.187L118.187 23.4656Z" fill="#373D47"/>
<path d="M132.993 30.6545C132.712 32.5023 130.917 33.7703 128.62 33.7703C125.665 33.7703 123.831 31.7864 123.831 28.6036C123.831 25.4109 125.675 23.3402 128.532 23.3402C131.342 23.3402 133.109 25.2747 133.109 28.3609V29.0768H125.936V29.203C125.902 29.5776 125.949 29.955 126.073 30.3101C126.196 30.6652 126.394 30.9899 126.652 31.2625C126.911 31.5352 127.224 31.7497 127.572 31.8917C127.919 32.0337 128.293 32.1 128.668 32.0861C129.16 32.1324 129.655 32.0181 130.077 31.7601C130.5 31.5022 130.828 31.1144 131.013 30.6545L132.993 30.6545ZM125.945 27.6166H131.023C131.042 27.2797 130.991 26.9427 130.873 26.6265C130.756 26.3104 130.575 26.022 130.341 25.7794C130.107 25.5368 129.825 25.3453 129.514 25.2169C129.203 25.0885 128.868 25.0259 128.532 25.0332C128.192 25.0312 127.856 25.0965 127.542 25.2255C127.228 25.3545 126.942 25.5446 126.702 25.7848C126.461 26.025 126.27 26.3105 126.141 26.6249C126.011 26.9393 125.945 27.2763 125.945 27.6166V27.6166Z" fill="#373D47"/>
<path d="M51.4993 12.0106H52.3944C52.5484 12.0298 52.7048 12.0169 52.8536 11.9725C53.0025 11.9282 53.1405 11.8534 53.2591 11.753C53.3777 11.6525 53.4742 11.5285 53.5425 11.3888C53.6109 11.2491 53.6497 11.0967 53.6564 10.9413C53.6564 10.3226 53.1919 9.92294 52.4042 9.92294C52.2464 9.90084 52.0857 9.91066 51.9317 9.95181C51.7777 9.99297 51.6335 10.0646 51.5076 10.1626C51.3817 10.2605 51.2766 10.3827 51.1986 10.522C51.1206 10.6614 51.0713 10.8149 51.0535 10.9736H50.0708C50.0877 10.6855 50.1636 10.4039 50.2938 10.1465C50.424 9.88899 50.6057 9.66114 50.8276 9.47709C51.0494 9.29305 51.3067 9.15674 51.5835 9.07667C51.8602 8.9966 52.1504 8.97448 52.436 9.01168C53.7539 9.01168 54.6818 9.75111 54.6818 10.8155C54.6849 11.1721 54.5659 11.519 54.3446 11.7982C54.1232 12.0775 53.8131 12.2722 53.4658 12.3499V12.4289C53.8775 12.4472 54.2652 12.6281 54.5442 12.9321C54.8232 13.2361 54.9707 13.6384 54.9546 14.0511C54.9241 14.3478 54.8349 14.6354 54.692 14.897C54.5492 15.1587 54.3557 15.3891 54.1229 15.5749C53.8901 15.7606 53.6226 15.8979 53.3361 15.9787C53.0496 16.0595 52.75 16.0822 52.4546 16.0454C52.1587 16.0859 51.8576 16.0662 51.5695 15.9875C51.2813 15.9089 51.0118 15.7729 50.7772 15.5876C50.5426 15.4024 50.3476 15.1717 50.2038 14.9093C50.0601 14.6469 49.9705 14.3582 49.9404 14.0604H50.9384C50.9987 14.7021 51.587 15.1161 52.4546 15.1161C53.3223 15.1161 53.8886 14.6511 53.8886 13.9957C53.8886 13.3309 53.3551 12.9214 52.4229 12.9214H51.4993V12.0106Z" fill="#373D47"/>
<path d="M56.0879 14.4511C56.0879 13.5399 56.766 13.0145 57.9667 12.9399L59.335 12.8608V12.4239C59.335 11.8892 58.9833 11.5873 58.3008 11.5873C57.7443 11.5873 57.3598 11.792 57.248 12.1499H56.2829C56.3848 11.2804 57.202 10.7227 58.3479 10.7227C59.6143 10.7227 60.3286 11.3545 60.3286 12.4239V15.8828H59.3678V15.1714H59.289C59.1289 15.4266 58.9041 15.6346 58.6375 15.7743C58.3709 15.9139 58.0722 15.9802 57.7717 15.9662C57.5596 15.9883 57.3453 15.9657 57.1425 15.8997C56.9397 15.8337 56.753 15.7258 56.5944 15.5831C56.4357 15.4403 56.3087 15.2659 56.2215 15.0709C56.1342 14.8759 56.0887 14.6648 56.0879 14.4511ZM59.335 14.0186V13.5953L58.1014 13.6744C57.4057 13.721 57.0902 13.9582 57.0902 14.4045C57.0902 14.8601 57.4846 15.1253 58.0269 15.1253C58.1858 15.1414 58.3464 15.1253 58.4989 15.078C58.6515 15.0307 58.793 14.9531 58.9151 14.8498C59.0371 14.7466 59.1372 14.6198 59.2093 14.477C59.2814 14.3342 59.3242 14.1783 59.335 14.0186Z" fill="#373D47"/>
<path d="M62.9735 11.6613V15.8828H61.9766V10.8203H65.3026V11.6613L62.9735 11.6613Z" fill="#373D47"/>
<path d="M71.3442 13.3494C71.3442 14.9578 70.5325 15.9662 69.2573 15.9662C68.9442 15.9877 68.6316 15.919 68.3562 15.7684C68.0808 15.6177 67.8541 15.3913 67.7028 15.1159H67.6239V17.5659H66.627V10.8203H67.5866V11.657H67.6611C67.8152 11.3719 68.0449 11.1351 68.3248 10.9726C68.6047 10.8101 68.924 10.7284 69.2474 10.7364C70.5324 10.7363 71.3442 11.7404 71.3442 13.3494ZM70.3188 13.3494C70.3188 12.28 69.8138 11.6339 68.9692 11.6339C68.1301 11.6339 67.6053 12.2937 67.6053 13.3538C67.6053 14.4089 68.13 15.0692 68.9648 15.0692C69.8138 15.0692 70.3188 14.4231 70.3188 13.3494Z" fill="#373D47"/>
<path d="M72.6722 17.696V16.8358C72.78 16.8495 72.8887 16.8557 72.9975 16.8544C73.2099 16.8702 73.4206 16.8068 73.5892 16.6764C73.7578 16.546 73.8725 16.3578 73.9111 16.1479L73.9856 15.9014L72.1572 10.8203H73.2429L74.5093 14.8414H74.5882L75.8502 10.8203H76.9074L75.0242 16.0919C74.5926 17.3238 74.115 17.719 73.0852 17.719C73.0019 17.719 72.7653 17.7097 72.6722 17.696Z" fill="#373D47"/>
<path d="M77.6855 14.4462H78.6781C78.7756 14.8925 79.193 15.1252 79.7769 15.1252C80.4408 15.1252 80.8483 14.8321 80.8483 14.3765C80.8483 13.8885 80.4824 13.6557 79.7769 13.6557H79.021V12.8795H79.7637C80.3663 12.8795 80.673 12.6473 80.673 12.2241C80.673 11.8524 80.3761 11.5686 79.7637 11.5686C79.2061 11.5686 78.7986 11.8058 78.7339 12.2054H77.7732C77.845 11.7462 78.0938 11.3336 78.4661 11.0563C78.8383 10.779 79.3043 10.6592 79.7637 10.7227C80.9644 10.7227 81.6513 11.2667 81.6513 12.122C81.6569 12.3601 81.5808 12.593 81.4356 12.7817C81.2904 12.9703 81.085 13.1033 80.8538 13.1584V13.2374C81.1291 13.273 81.3818 13.4087 81.564 13.6187C81.7461 13.8286 81.845 14.0983 81.8419 14.3765C81.8419 15.3389 81.0247 15.9756 79.7769 15.9756C78.6737 15.9756 77.7776 15.4689 77.6855 14.4462Z" fill="#373D47"/>
<path d="M83.2764 15.8828V10.8203H84.2645V14.3023H84.3434L86.6714 10.8203H87.6595V15.8828H86.6714V12.3821H86.5969L84.2645 15.8828L83.2764 15.8828Z" fill="#373D47"/>
<path d="M93.1033 11.6613H91.5126V15.8827H90.5145V11.6613H88.9238V10.8203H93.1033V11.6613Z" fill="#373D47"/>
<path d="M98.4736 14.516C98.3378 14.9787 98.0441 15.3788 97.6438 15.6465C97.2435 15.9142 96.7621 16.0325 96.2837 15.9806C95.9509 15.9894 95.6202 15.9256 95.3145 15.7934C95.0088 15.6613 94.7354 15.4641 94.5134 15.2154C94.2914 14.9668 94.126 14.6728 94.0288 14.3537C93.9315 14.0346 93.9047 13.6981 93.9503 13.3676C93.9059 13.0361 93.9332 12.6989 94.0302 12.3788C94.1273 12.0588 94.2918 11.7634 94.5126 11.5126C94.7334 11.2618 95.0055 11.0615 95.3103 10.9252C95.6151 10.7889 95.9456 10.7199 96.2793 10.7227C97.6848 10.7227 98.5339 11.6851 98.5339 13.2748V13.6234H94.9669V13.6794C94.9511 13.8652 94.9743 14.0523 95.0349 14.2286C95.0956 14.4049 95.1923 14.5666 95.319 14.7032C95.4457 14.8398 95.5996 14.9483 95.7706 15.0217C95.9416 15.0952 96.1261 15.132 96.3122 15.1297C96.5505 15.1583 96.7919 15.1152 97.0057 15.0059C97.2195 14.8966 97.396 14.7261 97.5129 14.516L98.4736 14.516ZM94.9669 12.8845H97.5172C97.5298 12.7147 97.5068 12.5441 97.4497 12.3837C97.3927 12.2233 97.3027 12.0767 97.1857 11.9532C97.0688 11.8297 96.9273 11.7321 96.7704 11.6666C96.6136 11.6012 96.4448 11.5693 96.2749 11.5731C96.1024 11.5707 95.9312 11.6031 95.7715 11.6681C95.6117 11.7332 95.4665 11.8297 95.3446 11.952C95.2226 12.0743 95.1264 12.2198 95.0615 12.3799C94.9967 12.5401 94.9645 12.7117 94.9669 12.8845H94.9669Z" fill="#373D47"/>
<path d="M102.7 10.8203H104.978C105.966 10.8203 106.545 11.3221 106.545 12.1076C106.547 12.3568 106.463 12.5991 106.308 12.7937C106.152 12.9884 105.935 13.1237 105.692 13.1769V13.256C105.987 13.2747 106.264 13.4062 106.465 13.6234C106.666 13.8406 106.776 14.1269 106.772 14.4231C106.772 15.3063 106.109 15.8827 105.001 15.8827H102.7V10.8203ZM103.688 11.5872V12.8981H104.677C105.279 12.8981 105.567 12.6659 105.567 12.2377C105.567 11.843 105.316 11.5872 104.787 11.5872L103.688 11.5872ZM103.688 13.6326V15.1159H104.87C105.46 15.1159 105.775 14.8551 105.775 14.3765C105.775 13.8698 105.418 13.6326 104.746 13.6326L103.688 13.6326Z" fill="#373D47"/>
</svg>
