<svg width="58" height="18" viewBox="0 0 58 18" fill="none" xmlns="http://www.w3.org/2000/svg">
<path d="M42.1587 0.735555C41.2253 0.383369 39.7608 0 37.9483 0C33.3137 0 30.0386 2.36992 30.0186 5.76154C29.9806 8.25436 32.3404 9.65943 34.1239 10.4995C35.9564 11.3598 36.569 11.8954 36.5599 12.6585C36.5509 13.8343 35.0954 14.3589 33.756 14.3589C31.8946 14.3589 30.885 14.1021 29.3281 13.4418L28.7499 13.1648L28.0901 17.0828C29.2229 17.5506 31.2529 17.9615 33.3482 18C38.2854 18 41.5044 15.6503 41.5407 12.0275C41.5788 10.041 40.3154 8.53317 37.6239 7.28951C35.9999 6.48792 34.9831 5.9413 34.9831 5.11954C34.9831 4.39315 35.8513 3.63008 37.6638 3.63008C39.2207 3.60073 40.3172 3.94558 41.1746 4.2886L41.6186 4.48854L42.2693 0.715378L42.1587 0.735555ZM54.2064 0.324671H50.5814C49.4486 0.324671 48.6076 0.630999 48.1074 1.76827L41.1401 17.7505H46.0683L47.0616 15.133L53.0736 15.1422C53.2241 15.753 53.6482 17.7487 53.6482 17.7487H58L54.2064 0.324671ZM23.345 0.181596H28.0376L25.1013 17.6148H20.4088L23.345 0.172424V0.181596ZM11.4133 9.78233L11.8936 12.2091L16.4901 0.324671H21.4654L14.0632 17.7212H9.10962L5.04962 2.98991C4.96444 2.73311 4.86112 2.55885 4.60556 2.40844C3.23712 1.68205 1.69831 1.08957 0 0.678691L0.0561875 0.313666H7.627C8.64744 0.352187 9.47756 0.678692 9.76031 1.78661L11.4133 9.7915V9.78233ZM48.3992 11.5689L50.2787 6.68786C50.2497 6.73372 50.6648 5.6845 50.9004 5.02415L51.2212 6.52278L52.3088 11.5579H48.3992V11.5689Z" fill="#BFBFD5"/>
</svg>
